<?xml version="1.0" encoding="UTF-8"?>
<svg version="1.1" viewBox="0 0 2048 1023" width="1280" height="1280" xmlns="http://www.w3.org/2000/svg">
<path transform="translate(0)" d="m0 0h2048v1023h-2048z" fill="#FCFCFC"/>
<path transform="translate(1383,7)" d="m0 0 4 2 13 12 11 14 7 10 8 14 7 14 7 21 3 17 1 11-1 21-2 9-18 18-9 11-7 8-12 16-12 19-11 23-2 5-1 10 2 29 2 14 11 13 15 20 5 7h1l3-26 7-35 9-31h3l-2 9-6 23-1 13-3 20 10-40 8-22 3-4h2l-1 5-5 11-3 10h2l2-6 4-9 4-1 3-11 6-16 5-10h3l-3 9-6 15-1 4 3-1 7-16 5-6h3l-3 10-8 24h2l-3 9-5 24 1 1 1-4 8-14 10-15 10-13 8-9 10-7 5-2h6l-6 16-3 11-1 6v23l4 17 6 15 10 21 9 25 6 23 4 26 1 12v15l-2 18-5 19-5 12-8 14-9 10-10 8-11 10-8 7-10 11-13 17-7 14-2 9v7l3 8 5 6 11 6 12 4 18 3h21l16-5 11-6 9-8 6-10 4-13v-17l-2-12-5-15v-8l8-16 8-11 7-8 11-9 11-8 16-9 25-10 16-4v2h-2l-2 4-14 14-9 11-10 12-10 16-6 12-3 10-1 9 2 9 4 6 11 9 10 11 10 15 8 15 6 18 3 18v13l-3 18-5 15-8 16-10 15 4 3 14 5 5 1h18l12-4 9-6 8-9 8-15 4-12v-31l4-15 7-14 9-12 10-10 12-9 15-9 9-3-6 12-10 18-9 21-7 21-3 17v13l3 11 18 32 9 19 6 16 6 25 1 9v12l-2 15-5 12-6 9-8 16-8 14-11 14-9 10 1 4 4 5 10 7 6 2h11l9-4 8-6 11-15 11-21 8-21v-37l3-22 5-20 8-20 9-16 9-12 14-14 31-21 14-11 10-9 8-7 9-10 9-14 4-10 1-4v-7l-3-9-2-4 4 2 12 11 12 15 9 15 6 13 4 13 2 9 1 9v12l-3 18-5 15-11 21-10 18-8 15-10 23-9 27-3 15-1 7v13l3 12 3 5 5-1 5-6 5-10 6-21 3-9 8 6 12 11 8 7 7 8 10 12 7 10 10 17 5 13 4 18v17l-3 14-8 17-8 10-9 10-6 4-399 1-39 1h-781l-62-1-674-1-13-12-8-10-1 4-5-7-4-14-1-6 4-13 4-8v-9l-6-12-9-11-5-5v-2l9-2h11l10 2 6 4 4 5 3 9 7 3h12l3-4v-12l-4-14-10-15-2-6v-14l4-10 6-9 7-8 10-8 2-1 2 23 7 20 6 11 9 10 11 7 15 4 8 5 4 6 1 3v8l-5 14-8 13v1l8-1 8-6 10-11 9-13 1-5-7-14-8-10-11-12-10-9-6-5-2-7 1-11 4-10 10-12 8-7 11-13 8-13 5-15 6-27v-15l-1-5 4 2 7 7 9 14 4 8 3 11v8l-3 8-6 12-2 9v7l3 10 5 8 10 8 15 10 10 4-7-8-5-4-4-7v-8l4-11 6-9 8-7 3-7 1-7v-9l-2-14-5-16-6-7-9-6-6-3-6-2 3-2 7-1h9l13 3 11 6 8 7v2l4 2 9 8 7 11 5 12 3 11v5l8-6 7-8 4-10 1-5v-10l-4-14-5-12v-2l12 2 15 5 15 8 10 8 8 9 7 12 4 13 1 5v23l-4 20-8 24-2 4 10-4 8-7 6-10 4-13 2-13 2-3h11l7 6 4 11 2 21v4l5 1h9l5-3 3-7 1-6v-9l-4-23-5-17-9-14-3-7-1-11 2-9 7-11 11-9 8-14 5-12 3-13v-19l-4-13-7-11-10-10-14-9-8-4 3-2 24 1 20 4 16 6 13 8 10 9 6 8 6 12 3 14-2 9-6 22-2 12v22l4 11 12 11 8 7 7 6 7 8 9 10 10 15 5 13 1 11-1 7 11-7 11-9 7-10 4-11v-13l-5-14-9-13-14-14-4-8-1-4v-16l4-13 7-13 5-7h1l5 30 7 21 9 15 8 8 11 6-10-21-4-15v-13l4-9 3-3 3 1 12 21 10 14 11 13 8 6 8 4 8 1 8-3 8-7 2-4-9 6h-3l2-4 13-9 3-5-5 1v-3l6-2-1-3 2-3-4-1 4-4-2-1 2-5v-12l-3-15-6-15-6-10-7-9-9-10-15-12-18-11-18-8-15-9-12-9-10-9-10-11-7-11-3-9v-20l3-19 6-20 6-16 12-25 11-19 16-24 15-20 2 1-4 30v40l3 18 6 18 7 12 7 8 9 6 12 5 3-1 1-7-3-9-10-13-6-5v-2h10l11 2-1-2v-10l3 1 1 12 8 1 17 5 18 8 12 7 12 11 7 8 6 12 4 16v2l11-1 5-3 1-3v-7l-5-14-5-10 1-3 18 6 18 10 10 8 11 10 9 12 5 8h30l3 1v3l-25 1v2l14 1 2 1-1 3-17 1 1 4h7v2h-5l5 21v3l10-4h-2v-3l9-4 26-6h5l-1 3h5v3l9-2 15-2h-17v-3l16-2h3l4-11 2-8 1-9v-11l-2-13-5-16-10-19-10-14-11-13-6-12-5-17-2-13-1-21 2-23 5-24-38 7h-4v22l-4 55-2 1-2-1 1-22-2 14-3 3v-11h-7l-1 4-2 24-2 5-2-1 1-27-5 34-2 6-3-1 4-29v-3l-2 4-2 9-3-1v-16l-10-13h-4l-9-10 8 16 6 10v3l-4-2-14-24-8-17v3l2 3v4h2l4 10v2h-3l1 2v7l-3-1-10-13-13-20-9-16-12-26-5-11-2 20-1 21h-4v-6l-2 28v20l1 7-2 1v12l1 17-4-2-1-7v7l1 8h-2v13l-4-3-2-9-1-19-4-5-2-3 1 7-3-1-4-12-2-16v12l-3-1-2-9v-18l2-25h-2v-20l3-27 5-24 2-1 3-15 5-26 4-2v4l4-2h2l4-1h5l1 4 3 2h5l3-1 2 13 6 20 10 24 3 5v-31l1-22 4-28 9-43 4-15 4-1v11l-3 6-4 19-3 23 5-27 4-13 2-6h3l6-24 11-32 3-1-2 9-3 11 4 1 2-6h3l-4 18h3l-2 10 3 1-6 34-4 34-1 5 17-8 29-11 18-5 19-3 21-1 7 2 3 2v2l-5 1 2 1-2 4h-3v-3h-2v7l-1 1 6 1 18-2 15-1 7-10 8-11 3-5v-6l-5-8-8-7-13-8-23-10-24-9-16-10-12-9-10-9-5-4-7-8-10-12-8-13-7-14-5-15-2-9 3 1 10 13 11 12 11 11 15 11 16 8 9 3 31 3 44 5 29 5 21 5 13 5 16 9 15 8 17 12 13 12 9 10 10 15 5 11v2l8 1 15 6 12 8 7 5-3-3v-2l5 1 7 7 7 10 7 15 5 15 2 14v9l-3 16-7 20-6 11h-3l1-4v-2l-10 9-13 7 6 20 10 28 10 21 6 9 11 9 11 11 8 13 4 12 2 14 3 4v2l-5-1-2 6h16l8-4 6-9 4-13 1-7v-33l-2-14-1-2v-10l4-12 6-12 7-11-2-5-12-23-2-5v-3h2l4 8-1-6-3-7v-3h-2l-9-24 1 4 3 9v7h-2l-4-9h-1l-3 40h-4l-1 9v40l-1 1v29l-3-1-2-10 1 13 1 3-4 1 2 12h-3l-2-3-2-12-1-15-3-3-2-5 1 7h-3l-4-11-2-8-1-14v16l-3-1-1-4v-48l-1-1v-14l2-23 5-28 2-6 2-1 5-30 3-11 3-1v5l1-2h5l1-2 7-1 2 3v3h3l1 2 7-2 1 2 1 10 5 17 10 25 3 6 2-46 4-32 1-11-22-11-4-5 1-8 6-10 11-12 13-10 10-8 3-7 4 1 10-8 4-10 3-5 1 4v4l14-12 9-9h2v-2l8-7 9-9 7-8 11-12 11-14 12-17 9-16 7-15 5-19v-22l-5-15-6-10z" fill="#E61D27"/>
<path transform="translate(1018,445)" d="m0 0h15l7 10 7 15 4 18v29l-5 25-3 10 1 14 4 22 6 21 5 12-1 3-16 5 12-2 1 5-13 6-11 5-7 3-13 6 3 1 8-4h4l2-2 9-2v6l-4 1v-2l-9 5-1-2-5 6 8-4 9-2v2l-14 6-10 6 21-9 13-5h2v3l-11 5 8-1v-2l20-5h2l-1 11-4 17-4 1-2 29-1 3h-3v34l1 2 1 26 1-39 2-2 2 4v31l3 31 2 11-1-7v-12l-2-10-1-16 2-1 4 20 3 21 2 1 2 16 1 2v-19h2l1 3-1-51-1-3 3-7 2 1 1 37 3-47-5-1 1-2 4 1 1-5h-5l1-17 1-9 2-1 5-41 3-10h2l1-8 3-1 2-4 3 1h14l36-2 2-1 5 1 2 11v9l-3 16-6 18-10 20-11 17-5 7 2 1 9 1h39l22-3 18-5 14-7 10-8 7-9 5-12 1-5v-21l-2-12v-13l4-16 6-10 6-7 13-9 5-3h3l2 5v3h3l-3-10 6-2 4 10 4 13v5l-4 3-1-5h-2v7l-3 3-3 11-3 16-2 4h-1v-8l3-12v-4h-4l-2 5-4 13-5 23-1 14 1 2-2 21h-2v-16h-2l-1 27v33l2 1-1 7h-2l1 20h-3v4l1-2h2l1 2 1 11v-22h3l1 13 2-4h1l1 10 1-25 1-11 2-1 1 25h3v11h3l2-5 1-12h3l1-2 1-15 10-7 6-5 6-9 3-5 2 2 4 20 1 10v15l-1 8-9 5 6-2 4-1 1-23-2-18-4-17h-3l-3 7h-2l-1 4h-2l-2 5-12 9h-1v-15l3-31 1-2 8-65 2-5 3 2 2 7 2 11 4 9v12l-2-1-7-25-1 4 7 26 1 1v9l-4 16 3-9 1-6 3 2 9 34 3 13 3 16 6 27 2 13v5h3l-6-31-12-53-8-32-1-5h2l-1-5 3 1 7 28v4h2l7 28 5 33h2l3 8 4 19v13l3 9h3l3 16 3 11 1-8-2-1-2-10v-10l1-1 1-14 1-3h2v-7l1-2h2v6l-2 5-1 14 5 1 1-11 2-2 5-33 3-13h2v10l3-14h-2l1-10 5-17 6-3 3-12h-2l1-6 2-4 3-1 10-27 3-6h2l5 22 5 11 6 9 9 8 12 5 4 1h12l22-5 19-7 13-7 10-9 4-7 1-4v-13l8 1 10 5 5 4 5 9 1 6v8l-3 12-10 21-8 12-13 17-11 13-5 7 11 3 21 6 25 5 9 1h26l16-2 17-5 3-8 5-12 4-6 8-7 10-4 6-1h11l4 2-12 6-6 5-6 10-3 12v7l3 14-1 12-4 12-7 11-7 7-5 4h-2v2l13 2h19l13-4 9-7 6-10 3-6 5 5 5 10v8l-5 12-9 11-10 9-11 8h-3v2l-14 7-12 7-3 7 1 10 4 6 5 4 12 5 15 3 33 3h23l15-3 11-6 7-8 41-12 26-9 16-8 6-4 5-6v-13l-5-12-7-10-4-5-1-4v-18l3-15 5-9 4-4 3 1-1 15 2 15 5 12 6 9 6 7 14 10 10 6 4 10v18l-4 12-9 14v13l4 13 6 7 4 2h13l12-5 4-4 8-17 8-12 7-8 8-5h2l-3 9-6 17-4 17-1 7v8l2 11 6 11 7 9v2l-380 1-39 1h-781l-62-1-615-1-11-1-17-7-9-8-3-8 2-10 5-8 8-9 12-9 5-10 1-4v-16l5 5 7 14 3 12 1 23 5 6 6 2h13l15-5 16-8 23-13 4-5 2-5-1-9-6-12-9-10-1-2 1-17 3-14 5-10 4-4h2v11l4 12 7 12 4 5 14 7 17 5h14l9-4 5-7 2-7v-12l-8-14-3-12v-7l3-10 5-8 4-5 12-9 14-7-2 5-8 18-3 14v12l4 12 5 6 12 7 9 4 9 10 7 11 3 7-1 6-3 3-5 1 2 4 4 2h12l8-5 8-7 11-15 4-6 4 2 7 7 9 14 3 11v7l-5 13h-2v2l24-8 17-9 13-10 9-12 4-11 1-5v-8l-4-20-1-8v-18l4-20 7-17h2l1 29 3 18 5 16 6 12 9 10 10 6 10 4 6 8 3 10v5l23-5 21-8 18-10 10-8 7-6 5-7 2-29 3-16 5-12 4-6 6-6 13-4-2 6-6 13-3 12v17l4 12 7 11 2 2 1 6v15l-3 12-5 9-8 8-12 6-4 1 2 1h10l21-2 23-5 13-5 10-5 9-7 8-9 5-10 3-12-1-11-5-26-1-12v-13l2 4 2 6h5l2 6 3 1 3 28h3l2 8 1 13 3-1-2-11-2-19-1-30v-42l1-17 6-4 7-12 7-21 17-4 3-2-9 1-5 2h-6v-3l29-7h2v-2l-7 1-17 2-21 5-3-1 1-2 17-5 25-4 3-5-13 1-28 6h-4l1-3 16-5-11 2h-4v-2l18-4 26-3 8-2v2l5 2 9 11 5 8-1 4-1 1h5l2 12v21l-3 12-5 12-8 14-5 8 14 2 18 2h11l18-2 13-5 9-6 7-10 5-15 16-3 10-1 2-1h10l1-1h-8l-4-2-11 2h-3v-2l20-4h-10l-1-1h-8l-6 4h-3l-1 3-17 4h-4v-2l9-2h3v-4l8-2h4v-2l10-3 24-3h-15l-1-1h-10l-20 3-22 6-21 8-8 3h-3l1-3 19-8 27-8 26-4h19v-2h-14l-5-1h-10l3-10 9-17 9-12 11-11 9-7h2l-2 6-6 15-2 7-1 13 3 7 5 4 7 1 16-8 16-10 7 4 10 6-2 1v3l5 2 8 7 7 12 3 9v14l-4 5-1 2 3-1-1 4-9 5 10-1-1 3-9 3 2 2-1 1-13 1-7-2-2-3 10 1v-3l-7-2v3l-4-1-6-3-6-5-1 1 9 7 7 6 9 2h6l1 2-6 1h-8l-8-5-4-4-10-5-2 4 5-1 3 2v2h-3l18 9v1l-12-1-8-5-7-2 3 4 2-1 17 11 1 2h-3l10 3v2h20l-15-1-2-2 5-2 14-3 10-7 5-6 3-1v3l3-6 1-3-1-6v-4-3h2l3 6 2-1 1-5 2 2-1 5-4 4 1 4 2-7h2v5l1-4 3-16h-2l-2-25-2-8v-5-2l-6-7-8-12-2-1v4h-2l-3-3-8-7-6-5-5-6-5-5-5-12-3-12v-11h2v-2h-2v-6l3-6 5-4 6-7 9-5h2v-3l-5 2-6 4-9 9-1 2-2-1 3-6 9-9-4 3h-2l2-4 2-5h2v2l3-3h3v2l9-3 5-2h-5l-6 2-1-2-3 2h-3v-2l10-5 7-3h5v2l4-1 13-1-10-2-7-1-7 1-9 3h-7l1-2 5-1-2-1v-2l3-1 1-3 3 1h10l-1-2h-11l-16 8-5 2-5-10-8-22-4-17-2-14v-10l3-17 8-16 12-13 10-12 10-15 8-17 3-12 1-8zm30 321v9l1 6h2l1-5-1-3h-2v-7z" fill="#FEEC31"/>
<path transform="translate(803,189)" d="m0 0h2l-2 9-3 11 4 1 2-6h3l-4 18h3l-2 10 3 1-6 34-4 34-2 13-1 2h-2l-2 26-2 57-1 18 1 12h2l-2-14 4-1 5 37 3 6 9 13 1-49-5 2h-4l2-4 7-6-8 1-2-1 1-5 3-3v-3l3-2-6 1 1-4 6-3h-7l-1-3 10-5v-29l-1-20 6-4h3v-2l-10 5h-3v-2h2l2-5 1-2h4v-2l-10 4h-2v-2h-2v-2l12-7 13-6 13-5-21 7-9 5h-2v2l-5 1v2l-6 1 2-1-2-5 3-4 8-4h2l-1-4 3-1v2l4-2-1-2 15-7h5v-2l19-5 21-5 19-2h8l-2 1v4l-6 2v4h-5v2l9 1 4 1-1 4-4 2h4l1-2 18-1h20l1 4-3 1-12 1-2 1-26 4-28 7-20 6h-3l2 30v17l14-3 17-2 22-1 7-16-6 4-4-1 10-8 3-4h2v-4h-4v-2l16-7 4-1v-4l-2-1v-9l3 4 1 8 12-6 7-1 27-10 23-7 11-3 24-4 19-1 5 3 7 2v2h-2v3l-14 4-14 3h-11l-21 5-34 13-18 8 3 1 31-13 31-11 8-1 8 2-40 12-3 3-26 10-8 3h-3l4 16v5l-3-1 2 7h3l2 8v5l18-6 1-6 11-3h7v2l20-1-3 3-28 7-24 8h-2v2l33-10 23-6 1 5-4 3-28 7-24 8h-2v2l2 1-1 5-5-2v18l-2 1v16l-5 2-2-7v-9h-2v18l-4 4-8 6 7-3h3l1 5 6-4h3l-1 3-8 4-3 1-1-4-2 6-7 4h-3l-1 5 4-1 6-3 3 1-4 5 7-1v-3l3-5 13-5 1-3 5-1v5l14-4h7l20-5h8v7l-4 14-8 17-10 14-9 11-8 8-7 10-5 11-3 17v10l3 20 7 23 8 19 5-2 16-8h11l2 4h-11l-3-2-1 4h-3v2l3 1-6 2 10-1 8-3h9l5 2 9 2v1l-19 1v-2l-7 2-15 6v2l6-3 3 1h-2v2l6-3h9l-4 2-5 2-7 2h-2v-2h-3l-1 3h-2v-2h-2l-1 5-3 4 5-4 2 1-10 10-2 5 13-13 7-4 3 1-1 3-8 4-7 6-4 5-3 2-2 5-1 6h2v2h-2l2 17 6 17 5 5 8 9 8 7 6 4v2h2v-4l4 2 10 15 4 5h-2l3 13 1 9v16h2v7l-3 17-3 4v-7l2-6h-2l-1 7-2 1v-5l-2-1 4-3h2v-6l-2 5-3 1-2-7h-2l2 6-1 4 1 5-3 4-2 4-1-3-5 5-7 6-5 3-18 4 1 1 15 1 4 2h-29v-1h5v-2l-10-2-2-2h4l-17-11-2 2-4-6h3l6 2 7 4 11 1-14-6-4-4 4 1-3-3h-5l1-4 2-1 9 5 4 3 4 4 4 2h8l5-1h-8l-9-3-5-5-9-7-2-3 4 1 8 6 7 3v-3l7 2v3h-9l3 2 10 1 8-1-3-2 11-4 1-2-8 2-4-1 11-6v-2h-2l2-5 2-2v-14l-5-13-6-9-9-7-2-1-1-5-10-6-4-2-18 11-14 7-7-1-7-6-2-6 1-13 6-18 5-10-13 10-10 10-10 15-8 17-2 5 14-1 4 1h9l2 1v2l-28 2-20 4-24 7-19 8-1 2 26-10 24-7 15-3 9-1h10l1 1h21v1l-35 5-5 1v2l-12 2v4l-12 2v2l21-5 1-2 6-3 3-2h8l5 1h8l-2 2-17 3h-3v2l16-3 2 2 8 1-1 2h-10l-2 1-21 3h-5l-3 12-4 8-7 8-14 7-11 3-13 1h-11l-18-2-14-3 2-5 9-15 5-11 3-9 1-6v-21l-2-11h-5l2-3-1-5-12-16-6-4-7 2-26 3-15 3h-3v2l17-3-1 2-17 5-1 2 27-6 11-2h8l-4 7-25 4-17 5 2 1 21-5 17-2h7v2l-15 4-13 3h-3v3l7-2 9-2 5 1-1 2-15 4h-5l-4 16-7 14-4 5-4 2-1 17v42l1 30 3 24 1 6-4 1-3-21h-3l-2-9-1-10v-9l-4-1-1-5h-5l-3-7 1 21 6 31-1 11-4 12-7 10-8 8-11 7-15 6-20 5-13 2-14 1h-10l-4-2 12-5 8-5 7-8 4-9 2-9v-15l-2-7-7-10-4-10-1-4v-17l4-14 7-16-12 4-7 7-6 13-3 12-2 18-1 18-7 9-8 7-13 9-15 8-19 7-17 4h-6l-4-15-6-8-13-5-9-7-7-8-7-14-5-19-2-13v-29h-2l-3 9-5 16-2 12v18l3 17 2 11v8l-3 11-4 8-9 11-14 10-15 8-21 7h-3v-2h2l1-5 3-8v-7l-4-13-9-13-7-7-3 1-7 11-9 11-10 8-4 2h-12l-6-4-1-3 7-3 2-3-1-7-6-11-12-14-14-6-8-6-4-5-4-12v-12l4-17 8-17v-1l-15 8-10 8-6 9-3 7-1 5 1 13 4 10 6 10v12l-3 9-5 6-9 4h-14l-17-5-14-7-7-9-7-14-2-7v-9l1-2-5 4-5 10-3 14-1 17 9 11 6 10 2 7-1 8-4 6-9 6-27 15-16 6-4 1h-13l-7-3-5-6-1-23-4-15-6-11-3-4v15l-4 11-4 5-13 10-8 10-3 6-1 8 3 8 8 7 17 7 11 1v1h-59l-13-12-8-10-1 4-5-7-4-14-1-6 4-13 4-8v-9l-6-12-9-11-5-5v-2l9-2h11l10 2 6 4 4 5 3 9 7 3h12l3-4v-12l-4-14-10-15-2-6v-14l4-10 6-9 7-8 10-8 2-1 2 23 7 20 6 11 9 10 11 7 15 4 8 5 4 6 1 3v8l-5 14-8 13v1l8-1 8-6 10-11 9-13 1-5-7-14-8-10-11-12-10-9-6-5-2-7 1-11 4-10 10-12 8-7 11-13 8-13 5-15 6-27v-15l-1-5 4 2 7 7 9 14 4 8 3 11v8l-3 8-6 12-2 9v7l3 10 5 8 10 8 15 10 10 4-7-8-5-4-4-7v-8l4-11 6-9 8-7 3-7 1-7v-9l-2-14-5-16-6-7-9-6-6-3-6-2 3-2 7-1h9l13 3 11 6 8 7v2l4 2 9 8 7 11 5 12 3 11v5l8-6 7-8 4-10 1-5v-10l-4-14-5-12v-2l12 2 15 5 15 8 10 8 8 9 7 12 4 13 1 5v23l-4 20-8 24-2 4 10-4 8-7 6-10 4-13 2-13 2-3h11l7 6 4 11 2 21v4l5 1h9l5-3 3-7 1-6v-9l-4-23-5-17-9-14-3-7-1-11 2-9 7-11 11-9 8-14 5-12 3-13v-19l-4-13-7-11-10-10-14-9-8-4 3-2 24 1 20 4 16 6 13 8 10 9 6 8 6 12 3 14-2 9-6 22-2 12v22l4 11 12 11 8 7 7 6 7 8 9 10 10 15 5 13 1 11-1 7 11-7 11-9 7-10 4-11v-13l-5-14-9-13-14-14-4-8-1-4v-16l4-13 7-13 5-7h1l5 30 7 21 9 15 8 8 11 6-10-21-4-15v-13l4-9 3-3 3 1 12 21 10 14 11 13 8 6 8 4 8 1 8-3 8-7 2-4-9 6h-3l2-4 13-9 3-5-5 1v-3l6-2-1-3 2-3-4-1 4-4-2-1 2-5v-12l-3-15-6-15-6-10-7-9-9-10-15-12-18-11-18-8-15-9-12-9-10-9-10-11-7-11-3-9v-20l3-19 6-20 6-16 12-25 11-19 16-24 15-20 2 1-4 30v40l3 18 6 18 7 12 7 8 9 6 12 5 3-1 1-7-3-9-10-13-6-5v-2h10l11 2-1-2v-10l3 1 1 12 8 1 17 5 18 8 12 7 12 11 7 8 6 12 4 16v2l11-1 5-3 1-3v-7l-5-14-5-10 1-3 18 6 18 10 10 8 11 10 9 12 5 8h30l3 1v3l-25 1v2l14 1 2 1-1 3-17 1 1 4h7v2h-5l5 21v3l10-4h-2v-3l9-4 26-6h5l-1 3h5v3l9-2 15-2h-17v-3l16-2h3l4-11 2-8 1-9v-11l-2-13-5-16-10-19-10-14-11-13-6-12-5-17-2-13-1-21 2-23 5-24-38 7h-4v22l-4 55-2 1-2-1 1-22-2 14-3 3v-11h-7l-1 4-2 24-2 5-2-1 1-27-5 34-2 6-3-1 4-29v-3l-2 4-2 9-3-1v-16l-10-13h-4l-9-10 8 16 6 10v3l-4-2-14-24-8-17v3l2 3v4h2l4 10v2h-3l1 2v7l-3-1-10-13-13-20-9-16-12-26-5-11-2 20-1 21h-4v-6l-2 28v20l1 7-2 1v12l1 17-4-2-1-7v7l1 8h-2v13l-4-3-2-9-1-19-4-5-2-3 1 7-3-1-4-12-2-16v12l-3-1-2-9v-18l2-25h-2v-20l3-27 5-24 2-1 3-15 5-26 4-2v4l4-2h2l4-1h5l1 4 3 2h5l3-1 2 13 6 20 10 24 3 5v-31l1-22 4-28 9-43 4-15 4-1v11l-3 6-4 19-3 23 5-27 4-13 2-6h3l6-24 11-32z" fill="#E61E27"/>
<path transform="translate(407,631)" d="m0 0 24 1 20 4 16 6 13 8 10 9 6 8 6 12 3 14-2 9-6 22-2 12v22l4 11 12 11 8 7 7 6 7 8 9 10 10 15 5 13 1 11-1 7 11-7 11-9 7-10 4-11v-13l-5-14-9-13-14-14-4-8-1-4v-16l4-13 7-13 5-7h1l5 30 7 21 9 15 8 8 11 6-10-21-4-15v-13l4-9 3-3 3 1 12 21 10 14 11 13 8 6 8 4 8 1 8-3 8-7 2-4-9 6h-3l2-4 13-9 3-5-5 1v-3l6-2-1-3 2-3-4-1 3-3 2 1-1 1 2 1-2 12 4-2 1-5h2l1 61 3 1v-6l-1-1v-6l1-2v-9l-1-2v-11h-2l3-9 2-4v-5h4l-1 13v13l3 1v9l2-2 1 1v32l-1 3-2 2 3 2v11h2v-54l2-19 2 1v11l-1 10 5-1v-17l1-3 1-15h3l1-3-4-1 9-4 8-2h4v2l7-2 9-2 5 1-1 2-15 4h-5l-4 16-7 14-4 5-4 2-1 17v42l1 30 3 24 1 6-4 1-3-21h-3l-2-9-1-10v-9l-4-1-1-5h-5l-3-7 1 21 6 31-1 11-4 12-7 10-8 8-11 7-15 6-20 5-13 2-14 1h-10l-4-2 12-5 8-5 7-8 4-9 2-9v-15l-2-7-7-10-4-10-1-4v-17l4-14 7-16-12 4-7 7-6 13-3 12-2 18-1 18-7 9-8 7-13 9-15 8-19 7-17 4h-6l-4-15-6-8-13-5-9-7-7-8-7-14-5-19-2-13v-29h-2l-3 9-5 16-2 12v18l3 17 2 11v8l-3 11-4 8-9 11-14 10-15 8-21 7h-3v-2h2l1-5 3-8v-7l-4-13-9-13-7-7-3 1-7 11-9 11-10 8-4 2h-12l-6-4-1-3 7-3 2-3-1-7-6-11-12-14-14-6-8-6-4-5-4-12v-12l4-17 8-17v-1l-15 8-10 8-6 9-3 7-1 5 1 13 4 10 6 10v12l-3 9-5 6-9 4h-14l-17-5-14-7-7-9-7-14-2-7v-9l1-2-5 4-5 10-3 14-1 17 9 11 6 10 2 7-1 8-4 6-9 6-27 15-16 6-4 1h-13l-7-3-5-6-1-23-4-15-6-11-3-4v15l-4 11-4 5-13 10-8 10-3 6-1 8 3 8 8 7 17 7 11 1v1h-59l-13-12-8-10-1 4-5-7-4-14-1-6 4-13 4-8v-9l-6-12-9-11-5-5v-2l9-2h11l10 2 6 4 4 5 3 9 7 3h12l3-4v-12l-4-14-10-15-2-6v-14l4-10 6-9 7-8 10-8 2-1 2 23 7 20 6 11 9 10 11 7 15 4 8 5 4 6 1 3v8l-5 14-8 13v1l8-1 8-6 10-11 9-13 1-5-7-14-8-10-11-12-10-9-6-5-2-7 1-11 4-10 10-12 8-7 11-13 8-13 5-15 6-27v-15l-1-5 4 2 7 7 9 14 4 8 3 11v8l-3 8-6 12-2 9v7l3 10 5 8 10 8 15 10 10 4-7-8-5-4-4-7v-8l4-11 6-9 8-7 3-7 1-7v-9l-2-14-5-16-6-7-9-6-6-3-6-2 3-2 7-1h9l13 3 11 6 8 7v2l4 2 9 8 7 11 5 12 3 11v5l8-6 7-8 4-10 1-5v-10l-4-14-5-12v-2l12 2 15 5 15 8 10 8 8 9 7 12 4 13 1 5v23l-4 20-8 24-2 4 10-4 8-7 6-10 4-13 2-13 2-3h11l7 6 4 11 2 21v4l5 1h9l5-3 3-7 1-6v-9l-4-23-5-17-9-14-3-7-1-11 2-9 7-11 11-9 8-14 5-12 3-13v-19l-4-13-7-11-10-10-14-9-8-4z" fill="#E71D27"/>
<path transform="translate(929,707)" d="m0 0h2l-2 6-6 15-2 7-1 13 3 7 5 4 7 1 16-8 16-10 7 4 10 6-2 1v3l5 2 8 7 7 12 3 9v14l-4 5-1 2 3-1-1 4-9 5 10-1-1 3-9 3 2 2-1 1-13 1-7-2-2-3 10 1v-3l-7-2v3l-4-1-6-3-6-5-1 1 9 7 7 6 9 2h6l1 2-6 1h-8l-8-5-4-4-10-5-2 4 5-1 3 2v2h-3l18 9v1l-12-1-8-5-7-2 3 4 2-1 17 11 1 2h-3l10 3v2h20l-15-1-2-2 5-2 14-3 10-7 5-6 3-1v3l3-6 1-3-1-6v-4-3h2l3 6 2-1 1-5 2 2-1 5-4 4 1 4 2-7h2v5l-1 1-1 15 10 7 4 6 5 12 1 4v8l-4 7-4 3-11 3h-11l-8-3h-8l-4 3-1 7 1 7-4 4-12 7-9 3-5 1h-11l-11-4-9-6-9-10-9-16-1-6 10-16 5-11 2-8v-12l-3-9-8-8-10-5 1 12-5 10-6 7-15 11-20 11-19 8 10 9 4 5 3 7v10l-7 17-6 8-5 3-9 1-11-4-10-8-13-13-12-16-2-5h-3l1 17 4 10 7 9v2l-10-3-9-6-5-4-6-8-7-14-4-16-3 4-3 11v22l4 17 6 16 10 21v8l-6 9-7 5-12 5-18 4h-16l-5-2v-5l4-3h2v-2l16-8h3v-2l-22 2-17 4-16 6-25 13-9 4-4 1h-13l-12-4-11-8-9-11-9-3-13-2h-17l-1 1 7 4 5 6 2 7v8l-3 11-7 11-2 3v4l6 3v1h-460l-11-1-17-7-9-8-3-8 2-10 5-8 8-9 12-9 5-10 1-4v-16l5 5 7 14 3 12 1 23 5 6 6 2h13l15-5 16-8 23-13 4-5 2-5-1-9-6-12-9-10-1-2 1-17 3-14 5-10 4-4h2v11l4 12 7 12 4 5 14 7 17 5h14l9-4 5-7 2-7v-12l-8-14-3-12v-7l3-10 5-8 4-5 12-9 14-7-2 5-8 18-3 14v12l4 12 5 6 12 7 9 4 9 10 7 11 3 7-1 6-3 3-5 1 2 4 4 2h12l8-5 8-7 11-15 4-6 4 2 7 7 9 14 3 11v7l-5 13h-2v2l24-8 17-9 13-10 9-12 4-11 1-5v-8l-4-20-1-8v-18l4-20 7-17h2l1 29 3 18 5 16 6 12 9 10 10 6 10 4 6 8 3 10v5l23-5 21-8 18-10 10-8 7-6 5-7 2-29 3-16 5-12 4-6 6-6 13-4-2 6-6 13-3 12v17l4 12 7 11 2 2 1 6v15l-3 12-5 9-8 8-12 6-4 1 2 1h10l21-2 23-5 13-5 10-5 9-7 8-9 5-10 3-12-1-11-5-26-1-12v-13l2 4 2 6h5l2 6 3 1 3 28h3l2 8 1 13 3-1-2-11-2-19-1-30v-42l1-17 6-4 7-12 7-21 17-4 3-2-9 1-5 2h-6v-3l29-7h2v-2l-7 1-17 2-21 5-3-1 1-2 17-5 25-4 3-5-13 1-28 6h-4l1-3 16-5-11 2h-4v-2l18-4 26-3 8-2v2l5 2 9 11 5 8-1 4-1 1h5l2 12v21l-3 12-5 12-8 14-5 8 14 2 18 2h11l18-2 13-5 9-6 7-10 5-15 16-3 10-1 2-1h10l1-1h-8l-4-2-11 2h-3v-2l20-4h-10l-1-1h-8l-6 4h-3l-1 3-17 4h-4v-2l9-2h3v-4l8-2h4v-2l10-3 24-3h-15l-1-1h-10l-20 3-22 6-21 8-8 3h-3l1-3 19-8 27-8 26-4h19v-2h-14l-5-1h-10l3-10 9-17 9-12 11-11z" fill="#F48F3D"/>
<path transform="translate(1420,678)" d="m0 0h2l5 22 5 11 6 9 9 8 12 5 4 1h12l22-5 19-7 13-7 10-9 4-7 1-4v-13l8 1 10 5 5 4 5 9 1 6v8l-3 12-10 21-8 12-13 17-11 13-5 7 11 3 21 6 25 5 9 1h26l16-2 17-5 3-8 5-12 4-6 8-7 10-4 6-1h11l4 2-12 6-6 5-6 10-3 12v7l3 14-1 12-4 12-7 11-7 7-5 4h-2v2l13 2h19l13-4 9-7 6-10 3-6 5 5 5 10v8l-5 12-9 11-10 9-11 8h-3v2l-14 7-12 7-3 7 1 10 4 6 5 4 12 5 15 3 33 3h23l15-3 11-6 7-8 41-12 26-9 16-8 6-4 5-6v-13l-5-12-7-10-4-5-1-4v-18l3-15 5-9 4-4 3 1-1 15 2 15 5 12 6 9 6 7 14 10 10 6 4 10v18l-4 12-9 14v13l4 13 6 7 4 2h13l12-5 4-4 8-17 8-12 7-8 8-5h2l-3 9-6 17-4 17-1 7v8l2 11 6 11 7 9v2h-310l-2-7-7-8-9-9-8-7-4-8-1-13 3-19 1-4-11 2-9 6-8 9-12 21-4-2-11-15-1-7 7-7 7-11 3-8v-15l-3-7-7-9-10-8-17-11-17-10-27-14-33-15-4-4-5-13-2-12-1-14-3 4-5 12-1 4v11l4 11 7 9 13 9 8 6 6 7 4 10 1 5v11l-4 16-3 7-5 1-7-3-8-7-5-6-12-5-5-1h-9l-8 3-2 1 1 6 4 10v7l-4 4-2 1h-7l-14-4-27-12-7-6-6-12-1-5v-16l4-17v-7l-3-9-3-5-2-1 1 9-3 1 3 20v11l-3-1-3-26-2-15-3-3-2 12-2-1-2-10v-10l1-1 1-14 1-3h2v-7l1-2h2v6l-2 5-1 14 5 1 1-11 2-2 5-33 3-13h2v10l3-14h-2l1-10 5-17 6-3 3-12h-2l1-6 2-4 3-1 10-27z" fill="#F48F3D"/>
<path transform="translate(1295,597)" d="m0 0 2 1 7 22v5l-4 3-1-5h-2v7l-3 3-3 11-3 16-2 4h-1v-8l3-12v-4h-4l-2 5-4 13-5 23-1 14 1 2-2 21h-2v-16h-2l-1 27v33l2 1-1 7h-2l1 20h-3l-2 4v-12l-31 6-14 2h-6l3 10 3 5v3h2l6 9-2 9-8 21-9 17-7 9-5 6-10 6-2 1h-12l-10-5-8-7-10-14-9-16-1-4-5 5-2 6 1 9 6 10 8 8-1 2-4 1-13-1-10-5-12-11-9-13-3-5v12l1 9h-2l-3-18-1-2v-6l-6 2-4-12v12l4 30 4 15 1 5h-3l-4-10-4-23-4-40-2-3-2-12v-12l-2-10-1-16 2-1 4 20 3 21 2 1 2 16 1 2v-19h2l1 3-1-51-1-3 3-7 2 1 1 37 3-47-5-1 1-2 4 1 1-5h-5l1-17 1-9 2-1 5-41 3-10h2l1-8 3-1 2-4 3 1h14l36-2 2-1 5 1 2 11v9l-3 16-6 18-10 20-11 17-5 7 2 1 9 1h39l22-3 18-5 14-7 10-8 7-9 5-12 1-5v-21l-2-12v-13l4-16 6-10 6-7 13-9 5-3h3l2 5v3h3l-3-10z" fill="#F48F3D"/>
<path transform="translate(623,414)" d="m0 0 2 1-4 30v40l3 18 6 18 7 12 7 8 9 6 12 5 3-1 1-7-3-9-10-13-6-5v-2h10l11 2-1-2v-10l3 1 1 12 8 1 17 5 18 8 12 7 12 11 7 8 6 12 4 16v2l11-1 5-3 1-3v-7l-5-14-5-10 1-3 18 6 18 10 10 8 11 10 9 12 5 8h30l3 1v3l-25 1v2l14 1 2 1-1 3h-12l-1-2h-19l-36 4-26 5-3-1v-1l-9 2v-4l-5 6-9 2-1-4-2 5-3 2-1-5-4 1-1 4-3 7h4l-1 3-7 1 1-9h-2l-4 17-1 2-6 1v4l2-1 1-3h3l-2 9-2 6-3 1-1 3 3-1-2 12-2 9-3 4-5 31-3 21-4-2 2-5v-12l-3-15-6-15-6-10-7-9-9-10-15-12-18-11-18-8-15-9-12-9-10-9-10-11-7-11-3-9v-20l3-19 6-20 6-16 12-25 11-19 16-24 12-16z" fill="#E71D27"/>
<path transform="translate(803,189)" d="m0 0h2l-2 9-3 11 4 1 2-6h3l-4 18h3l-2 10 3 1-6 34-4 34-2 13-1 2h-2l-2 26-2 57-1 18 1 12h2l-2-14 4-1 5 37 3 6 9 13 1-49-5 2h-4l2-4 7-6-8 1-2-1 1-5 3-3v-3l3-2-6 1 1-4 6-3h-7l-1-3 10-5v-29l-1-20 6-4h3v-2l-10 5h-3v-2h2l2-5 1-2h4v-2l-10 4h-2v-2h-2v-2l12-7 13-6 13-5-21 7-9 5h-2v2l-5 1v2l-6 1 2-1-2-5 3-4 8-4h2l-1-4 3-1v2l4-2-1-2 15-7h5v-2l19-5 21-5 19-2h8l-2 1v4l-6 2v4h-5v2l9 1 4 1-1 4-4 2h4l1-2 18-1h20l1 4-3 1-12 1-2 1-26 4-28 7-20 6h-3l2 30v17l14-3h13l-2 5-19 3v2l24-5 4-2 8-1h9v3l-5 1h-10v2h14l-3 1-1 3-10 1 9 1-1 4-30 5-14 3 10-1 36-6 1 2-4 5-17 3-12 1v-1h5v-2l-12 3-7 2v28l-4 55-2 1-2-1 1-22-2 14-3 3v-11h-7l-1 4-2 24-2 5-2-1 1-27-5 34-2 6-3-1 4-29v-3l-2 4-2 9-3-1v-16l-10-13h-4l-9-10 8 16 6 10v3l-4-2-14-24-8-17v3l2 3v4h2l4 10v2h-3l1 2v7l-3-1-10-13-13-20-9-16-12-26-5-11-2 20-1 21h-4v-6l-2 28v20l1 7-2 1v12l1 17-4-2-1-7v7l1 8h-2v13l-4-3-2-9-1-19-4-5-2-3 1 7-3-1-4-12-2-16v12l-3-1-2-9v-18l2-25h-2v-20l3-27 5-24 2-1 3-15 5-26 4-2v4l4-2h2l4-1h5l1 4 3 2h5l3-1 2 13 6 20 10 24 3 5v-31l1-22 4-28 9-43 4-15 4-1v11l-3 6-4 19-3 23 5-27 4-13 2-6h3l6-24 11-32z" fill="#160405"/>
<path transform="translate(1018,445)" d="m0 0h15l7 10 7 15 4 18v29l-5 25-3 10 1 14 4 22 6 21 5 12-1 3-16 5 12-2 1 5-13 6-11 5-7 3-13 6 3 1 8-4h4l2-2 9-2v6l-4 1v-2l-9 5-1-2-5 6 8-4 9-2v2l-14 6-10 6 21-9 13-5h2v3l-11 5 8-1v-2l20-5h2l-1 11-4 17-4 1-2 29-1 3h-3v34l1 4-3-2-14 10-1 3 4 18-1 13-1 6-1-4h-2l-2-25-2-8v-5-2l-6-7-8-12-2-1v4h-2l-3-3-8-7-6-5-5-6-5-5-5-12-3-12v-11h2v-2h-2v-6l3-6 5-4 6-7 9-5h2v-3l-5 2-6 4-9 9-1 2-2-1 3-6 9-9-4 3h-2l2-4 2-5h2v2l3-3h3v2l9-3 5-2h-5l-6 2-1-2-3 2h-3v-2l10-5 7-3h5v2l4-1 13-1-10-2-7-1-7 1-9 3h-7l1-2 5-1-2-1v-2l3-1 1-3 3 1h10l-1-2h-11l-16 8-5 2-5-10-8-22-4-17-2-14v-10l3-17 8-16 12-13 10-12 10-15 8-17 3-12 1-8z" fill="#F48F3D"/>
<path transform="translate(1353,432)" d="m0 0h2l-3 12-5 17-2 13v13l3 14 5 9 8 7 17 8 9 9 8 13 3 11v10l-1 4h8l8-2 6-4 3-4 1-3v-13h2l7 14 2 9v20l-3 1-3 10 2-1 2-5 1 4-4 15-4 9-1-3-3 1 1-7-4 4-6 12-4 4-2 4-4 1-8 16-9 23-12 35-5 19-1-4h-2l-3-16-3-2-15-53-13-47-3-16-1-8-3 1 1 8-3-3-2-9 8-8 7-10 5-10 2-7v-10l-4-11-6-8-7-8-3-10v-19l4-13 7-13 7-9 9-10z" fill="#F48F3D"/>
<path transform="translate(1281,219)" d="m0 0 1 4-5 23h2l2-11 2-4 2 3h1v7l-3 12 3-1v-5l3 1v-5l1-3-2-1v-6h-2l2-9 3 4 3 6-1 11-4 26-5 42-3 11-3 37-1 40-5 2-1 8h2l1-7h2v9l-1 2-4 2 1 2 4-2 2 11 1-1-1-13h3l2 18v7l-2 4-3-2 2 5-1 3-6-11-2-1 6 12-2 1-4-4-3-6 1 4 3 6-1 2-6-10-1-4h-2l6 17-1 3h-2l3 5v5l-5-5-3-5h2l-4-7v-2l-4 1-7-10-4-4-12-23-2-5v-3h2l4 8-1-6-3-7v-3h-2l-9-24 1 4 3 9v7h-2l-4-9h-1l-3 40h-4l-1 9v40l-1 1v29l-3-1-2-10 1 13 1 3-4 1 2 12h-3l-2-3-2-12-1-15-3-3-2-5 1 7h-3l-4-11-2-8-1-14v16l-3-1-1-4v-48l-1-1v-14l2-23 5-28 2-6 2-1 5-30 3-11 3-1v5l1-2h5l1-2 7-1 2 3v3h3l1 2 7-2 1 2 1 10 5 17 2 10-1 3 7 17 7 15v-3l-1-4 3 3 2-4 2 13 2 4-2 3 4-4v-3h-2l-1-3-1-23h-2v-11h2l3-39 2-13 2 2 5-28-1-7 4-12 3-1 3-11z" fill="#130304"/>
<path transform="translate(1108,298)" d="m0 0 4 1 2 1v2l3-1 7 7-5-10h3v2h3v2l5 2 12 12 7 10-2-5 1-3 4 5 5 11 3 14 1 8v-11l-4-16-8-14-2-5h3l-5-5v-2h-2v-2l4 2 7 7 6 7 3 1 6 15 3 13 1 8v9l-3 16-7 20-6 11h-3l1-4v-2l-10 9-13 7 6 20 1 9h-2l-1 2-7-18 3 10 9 27 7 16 8 19-4-2-7-11-6-12-2-1 5 13 8 18v4l-4-1-7-8-5-4-1-4 3 1-2-4-2-3-4-2-3-4 2 5-1 3-5-10-4-11v-2l-4 1-6-20-9-20-2-6-1 2-1 21v25l1 24-4-1-1-14-2-8v-17l-4 1v5h-1l-1-24 1-52-2 23-1 28v28l-2 1-1-2-2-26-2-3v11l2 22v9h-2l-3-13-3-19-2-22v-16l1-30 3-15 4-18-1-1v-9l6-21 2-2v8l3-1v12l5-15 2-1-2 10h2l-1 13-2 18v10l7-43 5-2-1 10-2 9h2l-1 13-3 15h2l5-34 1-2h-2l1-6 3-7 1 3v8l-2 12-4 37-1 14-1 4 19-1 8-4 5-4 6-10 3-7 4-2-2-1 1-3 6-1-2-18-5-12-8-12-4-5 1-2 8 7 6 8-2-4v-3l-3-1-4-5-7-6-4 1-2-4h-3v-2l-10-5z" fill="#130404"/>
<path transform="translate(1310,647)" d="m0 0 3 2 2 7 2 11 4 9v12l-2-1-7-25-1 4 7 26 1 1v9l-4 16 3-9 1-6 3 2 9 34 3 13 3 16 6 27 2 13v5h3l-6-31-12-53-8-32-1-5h2l-1-5 3 1 7 28v4h2l7 28 5 33h2l3 8 4 19v13l2 10-7-1-24-1v2l5 2 6 5 4 7v7l-4 7-9 6-13 6-12 3-10 1-12-5-9-7-5-8-1-4v-7l4-9 6-8 4-4v-2l-3-2-1-9 1-33 1-11 2-1 1 25h3v11h3l2-5 1-12h3l1-2 1-15 10-7 6-5 6-9 3-5 2 2 4 20 1 10v15l-1 8-9 5 6-2 4-1 1-23-2-18-4-17h-3l-3 7h-2l-1 4h-2l-2 5-12 9h-1v-15l3-31 1-2 8-65z" fill="#F48D3D"/>
<path transform="translate(894,283)" d="m0 0h8l-2 1v4l-6 2v4h-5v2l9 1 4 1-1 4-4 2h4l1-2 18-1h20l1 4-3 1-12 1-2 1-26 4-28 7-20 6h-3l2 30v17l14-3h13l-2 5-19 3v2l24-5 4-2 8-1h9v3l-5 1h-10v2h14l-3 1-1 3-10 1 9 1-1 4-30 5-14 3 10-1 36-6 1 2-4 5-17 3-12 1v-1h5v-2l-12 3-7 2v28l-4 55-2 1-2-1 1-22-2 14-3 3v-11h-7l-1 4-2 24-2 5-2-1 1-27-1 5h-2v7h-1v-20l1-3 2-24v-8l-1-1-3 36-2 3 1-23 2-28-8 2v2l-5 2h-4l2-4 7-6-8 1-2-1 1-5 3-3v-3l3-2-6 1 1-4 6-3h-7l-1-3 10-5v-29l-1-20 6-4h3v-2l-10 5h-3v-2h2l2-5 1-2h4v-2l-10 4h-2v-2h-2v-2l12-7 13-6 13-5-21 7-9 5h-2v2l-5 1v2l-6 1 2-1-2-5 3-4 8-4h2l-1-4 3-1v2l4-2-1-2 15-7h5v-2l19-5 21-5z" fill="#0F0303"/>
<path transform="translate(1315,574)" d="m0 0 2 1 5 17 6 8 3 5 12 44 17 60 3 2 4 22 2 7 6-21 11-35 11-27 2 4-7 18h2l3-9 2-5 2-7h3l7-16 2-1-1 5-14 35v4l14-33 8-13 2-4h3l-2 6-6 14-1 8 2 1 3-1v2l2-1 3-6h2l-1 6-7 15-11 29-2 5-3-1-3 10 3-1-2 10-2 4-5 2-6 21-1 6h2l-1 9-2 9h-1v-10l1-4h-2l-1 9-5 30-1 7-2 2-2 11-5-1v-14l2-5 1-6h-2l-1 9h-2l-1 17-1 1v10l2 10 2-13h1v10l-2 18h-1l-3-13-2-7-1-13-4 1-3-10v-13l-5-23-1-4h-2l-2-8-5-29-6-24v-5l2 3 4 16v5h2l-8-33-5-20h3l-8-26-1-7 3 1 3 8 4 17v4h2l-6-26-5-9-4-11-1-7h-3l-1-6 2-5-1-5-6-21-1-9 6 9 2 1 1-2 7 21 4 4v2h2l-4-11-3-3-7-25z" fill="#070102"/>
<path transform="translate(992,586)" d="m0 0h12l10 3 9 5 8 7 4 8 3 15v4l6 1 10-2 1 5-13 6-11 5-7 3-13 6 3 1 8-4h4l2-2 9-2v6l-4 1v-2l-9 5-1-2-5 6 8-4 9-2v2l-14 6-10 6 21-9 13-5h2v3l-11 5 8-1v-2l20-5h2l-1 11-4 17-4 1-2 29-1 3h-3v34l1 4-3-2-14 10-1 3 4 18-1 13-1 6-1-4h-2l-2-25-2-8v-5-2l-6-7-8-12-2-1v4h-2l-3-3-8-7-6-5-5-6-5-5-5-12-3-12v-11h2v-2h-2v-6l3-6 5-4 6-7 9-5h2v-3l-5 2-6 4-9 9-1 2-2-1 3-6 9-9-4 3h-2l2-4 2-5h2v2l3-3h3v2l9-3 5-2h-5l-6 2-1-2-3 2h-3v-2l10-5 7-3h5v2l4-1 13-1-10-2-7-1-7 1-9 3h-7l1-2 5-1-2-1v-2l3-1 1-3 3 1h10l-3-4h2l-1-13-4-8-6-5-8-3z" fill="#F48D3D"/>
<path transform="translate(1455,225)" d="m0 0h3l-3 9-6 15-1 4 3-1 7-16 5-6h3l-3 10-8 24h2l-3 9-5 24-1 1-3 25-2 7-1 9-3 2-1 4 3-1v10l-1 11-2 3-1 12v40l5 34v4l6-1 16-1h14v1l-5 1-20 1-2 1 25 1 16 2 13 4-1 3-21-3-1 1 2 1 9 1 2 1-1 5-11-1v2l6 1 3 3 11 1v-2l-6-2 1-2h6l2 1v3h-2v2h2l-1 3h-23l-1 2 12 1 1 2h-11l-7-1h-20v-2l-14 1-6 2h-7l-5-1-12 3-3-1 9-4 13-4-8 1-12 4-4-1 7-6 3-3 13-2v-2l-9 1 1-5-8 3-3-8-1-3v-7l2 4 2 5-1 3 12-1-1-2h-9v-1l5-1-1-9 1-3-2-13-1-7-2-1 2 10v5l-2-4-4-10-2-27-2-11v23l1 13v12h-1l-2-20-1-18v-23l1-18v-13l2-22 6-33 7-27 4-13h3l-2 9-6 23-1 13-3 20 10-40 8-22 3-4h2l-1 5-5 11-3 10h2l2-6 4-9 4-1 3-11 6-16z" fill="#0E0203"/>
<path transform="translate(828,610)" d="m0 0h19l5 1-4 2-6 1-23 1-19 3-4 1 17-2h10l2 4v4l-6 1v2h11v2l-11 4-8 3h-5l-5-1-22 4-4 1-1 2-22 5-5 2h-4v2l9-2h6l1 3-13 3h-3v2l9-1-3 2-7 3-2 8-1 14-2 8-4 31 16-4 11-2h24v2l-6 2-26 3-15 3h-3v2l17-3-1 2-17 5-1 2 27-6 11-2h8l-4 7-25 4-17 5 2 1 21-5 17-2h7v2l-15 4-31 8-5 2 3 1-1 5-1-2h-2v15l-1 3-1 17-5 1v-21l-2 18-1 54h-2l-1-11-3-3 3-1v-35l-1 1-1 7h-1v-16l-3-3v-11l1-11 1-2h-4l1 7-3 5-3 6h2l1 11 1 2v9l-1 2v6l1 1v6l-2 1-3-2-1-59 1-2h-2v5l-5 2 1-10 1-2-3-1 2-2 7-48 3-7 2-5 3-16h-2l1-5 3 1 3-13 1-2-3 1-1 4-2-1v-4l6-1 2-12 3-7h2l-1 9 7-2 1-2h-4l2-7 2-4 4-1 2 4 4-6 2 1-1 3 10-4 5-8 1 3-2 5 9-3 3 1v1l26-5z" fill="#090102"/>
<path transform="translate(909,797)" d="m0 0 10 2 11 7 2 2 1-4h3l3 12 7 10 5 6v-3-3l5 2 14 9 1 2h-3l10 3v2h20l-15-1-2-2 5-2 14-3 10-7 5-6 3-1v3l3-6 1-3-1-6v-4-3h2l3 6 2-1 1-5 2 2-1 5-4 4 1 4 2-7h2v5l-1 1-1 15 10 7 4 6 5 12 1 4v8l-4 7-4 3-11 3h-11l-8-3h-8l-4 3-1 7 1 7-4 4-12 7-9 3-5 1h-11l-11-4-9-6-9-10-9-16-1-6 10-16 5-11 2-8v-12l-3-9-8-8-10-5 1 12-5 10-5 4 7-14v-7l-1-6-3-1z" fill="#F48F3D"/>
<path transform="translate(835,613)" d="m0 0h7l2 5h7v2h-5l5 21v3l14-5 12-3h10l16-2 1 2-9 3-20 5-14 5v2l-9 3-27 10-6 1-6 4-3-1-3-9 1 12-5 3-5 1 1 1v3l-13 12h3 14l1 1 3 14 4 27v8l-6 3-4-8-10-13-7-4v-2l-24 1-27 5 1-17 3-20 3-21 2-4 6-3h-5v-2l15-4v-2l-9 2h-6v-2l13-4 15-3h3l1-3 20-4 10-1 1 1 8-1 13-5h3v-2h-11v-2l6-1-2-7h-10l-13 2h-5l1-2 15-3z" fill="#E51D27"/>
<path transform="translate(1363,269)" d="m0 0h2l1 18 3 22 1 13h2l1-4 5 30 1 3 3 2 4 4-1 1h-6l5 27 9 31 8 24v5l-3-3-4-11-9-30v-2l-2 1 2 9 4 12v5h-3l-2-3-1-6h-2l-4-10 1 8 8 26v8l5 15-1 3-7-16-7-32-2-2h-2l-5-21h-3v-2h-2l-2-9-1-7h-6l1-5-5 1v3l-13 4-1 5h-4l2 4-7 20h-4l1-6h-2l1-6 2-8v-5l-5 17-4 5-11 32-2 2 2-10 4-15-4-2 1-7 3-10h-2l-3 10-6 15-4 9h-2l3-11 8-21 1-4h-2l-3 10-9 27h-3l2-9 7-21v-5l4-6h-2l2-4 3-5v-4l5-12 9-28 9-31 3-1-1-8 5-20h1l-1 18-1 9-2 6 2-1 3-10 2-1 2 7v12l4-20h-2l1-8 2 1 2 5v5l2-2-2-8 2-3h2l2 19v-25l1-1 1-7h1l1 5 1 19 2 1v-17h3v-11z" fill="#0A0102"/>
<path transform="translate(1087,618)" d="m0 0h21v2h16l24 3 4 4-4 1-11-1 1 2 15 1 3 1v3h-42v1h25l28 3 4 1v2h-18l-1 1-36 2h-14l-3-1-2 4h-3l1 5-1 6-1-3h-2l-3 19-4 32-3 1v9l-2 17h5l-1 5-4 1 4 1v12l-2 35-1 10h-1l-1-47-3 6 1 2 1 61h-1l-1-12h-2l1 4v18l-2-3-2-8-1-10-1 9h-1l-2-25-4-23h-1l2 21 1 6v9l2 12-2-2-2-6-3-27-1-12v-33h-2l-1 41-2-2-1-26-1-3 1-33h3l2-28 1-4 3-1 5-22 1-6-18 5h-4v2l-12 3 3-3 10-4h2v-3l-27 11-9 4-3-1 17-9 10-3v-2l-12 4-2 2h-3l2-4 4-3 1 2 6-4h2v2l4-1v-2l-2-1h2v-3l-10 4-3 2v-2l-10 5-4-1 3-3 14-7 10-4 17-7v-5l-10 3-4-1 11-4 17-5h10zm-39 148h1v7h2l1 4-1 4h-2l-1-6z" fill="#0B0103"/>
<path transform="translate(1e3 618)" d="m0 0h11l2 4h-11l-3-2-1 4h-3v2l3 1-6 2 10-1 8-3h9l5 2 9 2v1l-19 1v-2l-7 2-15 6v2l6-3 3 1h-2v2l6-3h9l-4 2-5 2-7 2h-2v-2h-3l-1 3h-2v-2h-2l-1 5-3 4 5-4 2 1-10 10-2 5 13-13 7-4 3 1-1 3-8 4-7 6-4 5-3 2-2 5-1 6h2v2h-2l2 17 6 17 5 5 8 9 8 7 6 4v2h2v-4l4 2 10 15 4 5h-2l3 13 1 9v16h2v7l-3 17-3 4v-7l2-6h-2l-1 7-2 1v-5l-2-1 4-3h2v-6l-2 5-3 1-2-7h-2l2 6-1 4 1 5-3 4-2 4-1-3-5 5-7 6-5 3-18 4 1 1 15 1 4 2h-29v-1h5v-2l-10-2-2-2h4l-17-11-2 2-4-6h3l6 2 7 4 11 1-14-6-4-4 4 1-3-3h-5l1-4 2-1 9 5 4 3 4 4 4 2h8l5-1h-8l-9-3-5-5-9-7-2-3 4 1 8 6 7 3v-3l7 2v3h-9l3 2 10 1 8-1-3-2 11-4 1-2-8 2-4-1 11-6v-2h-2l2-5 2-2v-14l-1-8h2l-2-9h2l-3-6h-2l-3-5-14-7-1-2 5-1 4 3 1-1-11-7-11-6-7-8-9-10-3-4v-5l4 5 7 9 8 8 1-2h2l-1-2-7-2-1-3 1-2-6-9-1-2 4 1 9 12 9 7 4 4 2 1-5-5-5-6-4-2-9-13-5-1-4 2-6-6-4-15v-22l3-10 1 4-1 3-1 12-1 3 3 1v14h2l-1-22-1-8 3-9h2l5-8 9-9 14-10 16-9z" fill="#0D0203"/>
<path transform="translate(698,270)" d="m0 0 1 3-5 15-4 20-7 54-4 38-2 26v59l1 21h-3l-1-2-1-9-1-35h-2l3 37h-3l-3-21-1-8-2 1 1 16h-3l-1-2v-7l-3 1-2-7-2-13h-2l-1-2 1 16h-3l-2-8-1-10-4-2-1-6v-47l1-30 3-33 4-23 3-10 2-1 4 1-2 15 4-15 7-11h2v3h3l4-8 3 1v2l5-8h3l-1 6h3v5l4-16 3-5z" fill="#110304"/>
<path transform="translate(1051,293)" d="m0 0 7 1 2 2 7 2v2h-2v3l-14 4-14 3h-11l-21 5-34 13-18 8 3 1 31-13 31-11 8-1 8 2-40 12-3 3-26 10-8 3h-3l4 16v5l-3-1 2 7h3l2 8v5l18-6 1-6 11-3h7v2l20-1-3 3-28 7-24 8h-2v2l33-10 23-6 1 5-4 3-28 7-24 8h-2v2l2 1-1 5-5-2v18l-2 1v16l-5 2-2-7v-9h-2v18l-4 1-1-21-2-13h-1l1 16v15h-3v-26l-4 1 1-4 1-5-9-1v-2l6-4h2l-6-39-2-10h-12v-2h-2l-1 3-2-1 2-5 4-2v-4h-4v-2l16-7 4-1v-4l-2-1v-9l3 4 1 8 12-6 7-1 27-10 23-7 11-3 24-4z" fill="#0B0103"/>
<path transform="translate(912,637)" d="m0 0h23l5 3 4 2-1 5-15 4-15 3h-3v-2l-24 6-22 8-21 8-11 5-1 3 24-10 5-3 10-3 3-2 13-4 12-4 7 1h7l-3 2-35 10-3 1 1 2-28 10-10 4h-2v2l2 1 2 14v6l-3-4-2-8v-6h-3l-1 12h-1l-2-12-5 2 3 1 2 7v7h2l1-3 4-1 4 8 3 1 2 8v6l16-6 3-2 2-6 12-3h4v3l23-2-4 3-34 9-20 7h-2v2l28-9 26-7h2l1 6-8 3-25 6-22 7-3 8-3-1-1 18h-2v17l-4 1v-7h-3v-7h-2l1 16-9 3-2-1 5-2v-19l-1-10-2-4 1 18v14h-2l-1-26-4 1 2-10-2-1-1 2-2-1h-5l5-5 3-1-1-16-3-19-3-14h-14l-4 1 2-4 12-11-3-2 4-3 5-1 2-1-1-15 3 4 2 8 5-2 5-3 7-1 27-10 7-3 9-3 23-6z" fill="#0F0203"/>
<path transform="translate(810,746)" d="m0 0 3 1-1 6-1 3h3l1 5v21h2l-2-25v-7l2-4 1 7 1 1 1 10v19l-4 2 9-2-1-7v-9h2v7h3v7l7-1 7-3v-2l18-5 37-7 8 1h9l2 1v2l-28 2-20 4-24 7-19 8-1 2 26-10 24-7 15-3 9-1h10l1 1h21v1l-35 5-5 1v2l-12 2v4l-12 2v2l21-5 1-2 6-3 3-2h8l5 1h8l-2 2-17 3h-3v2l16-3 2 2 8 1-1 2h-10l-2 1-21 3h-5l-3 12-4 8-7 8-14 7-11 3-13 1h-11l-18-2-14-3 2-5 9-15 5-11 3-9 1-6v-21l-1-11z" fill="#E61C26"/>
<path transform="translate(1286,639)" d="m0 0 3 1-1 8-4 18h2l-3 25-3 27h2l2-22 2-9h2l2-14 3-8 2 1v5l4-19 2-2 3 1-1 14-5 44v7l2-3-1 16-2 21v14l12-9 2-4 2-1 1-3h2l2-7 3-4 4 11 3 17 1 11v9l-2 14-8 4-4-1 10-5 1-8v-15l-3-21-2-9-1-1-5 9-7 8-10 7-2 1-1 15-1 5-1-3h-3v12l-3 5h-3v-11h-3v15h-1l-1-39-1 11-1 33h-1l-2-17-1 6-2-3-1-13h-1v26l-2-4-1-13h-2l-1 3h-1v-7l3 2v-20h2v-7h-2v-34l1-21 1-6h2l1 5-1 11h2l1-22-1-1 1-14 6-27 4-11z" fill="#050102"/>
<path transform="translate(992,586)" d="m0 0h12l10 3 9 5 8 7 4 8 3 15v4l6 1 10-2 1 5-13 6-11 5-7 3-13 6 3 1 8-4h4l2-2 9-2v6l-4 1v-2l-9 5-1-2-5 6 8-4 9-2v2l-14 6-11 6 1 2-4 3 1 13-3 13-7 14-6 9-7-5-4-8-4-12-1-6v-11h2v-2h-2v-6l3-6 5-4 6-7 9-5h2v-3l-5 2-6 4-9 9-1 2-2-1 3-6 9-9-4 3h-2l2-4 2-5h2v2l3-3h3v2l9-3 5-2h-5l-6 2-1-2-3 2h-3v-2l10-5 7-3h5v2l4-1 13-1-10-2-7-1-7 1-9 3h-7l1-2 5-1-2-1v-2l3-1 1-3 3 1h10l-3-4h2l-1-13-4-8-6-5-8-3z" fill="#D72326"/>
<path transform="translate(1095,424)" d="m0 0 2 1 5 13 7 15 9 31 9 24h3l-5-11 1-3 10 18 6 10 2 6v8l-3 9-5 6-3 2-7-1-6-4-12-11-9-11-10-12-2-4 1-2-3-2v-6h2l-1-11-3 1-2-7-1-16 2 1 1 12 1 4h2l-1-5v-16h2l4 19 1 14 3 1-1-7-1-17v-25l1-21z" fill="#FDFDFD"/>
<path transform="translate(924,307)" d="m0 0 3 3v6l-2 2-1-9-3 1 2 10v4h-2l-3-6-2-1 2 8-5 2v2h6l-1 3-6 3h-2l1 2 4-1-1 5-8 7-6 5 4-1 5-2-3 9-4 8-22 1-22 3-9 1-2-37v-10l30-9 26-6z" fill="#FCFCFC"/>
<path transform="translate(1447,304)" d="m0 0 4 2 10 9 5 5 7 8 7 12 3 10v9l-4 12-6 8-7 7-15 10-9 4-1-2v-38l2-28 3-23z" fill="#FDFDFD"/>
<path transform="translate(1108,306)" d="m0 0 5 2 9 7 10 12 8 16 1 6-2-3-3-6v-2h-4l7 14 1 4v9l-2 9-6 11-4 5-7 5-5 2h-19l2-26 3-22 3-8 2-12z" fill="#FDFDFD"/>
<path transform="translate(1411,700)" d="m0 0 1 3-8 25-8 33-4 23-3-1-3 14-4 32v10l6 7 2 6v15l-3 11v19l3 9 6 8 8 5 27 11 7 2h9l2-3v-7l-5-12 1-4 5-4 3-1h18l11 4 6 5 7 8 4 3 7 1 4-11 2-9v-13l-3-10-6-9-15-10-10-9-6-9-3-10 1-13 4-12 5-8 4-2 3 27 5 15 4 4 35 16 24 12 20 12 16 11 10 8 8 11 2 6v14l-4 11-9 13-4 4 1 6 4 5-1 3-7-10v-5l7-7 7-11 3-8v-15l-3-7-7-9-10-8-17-11-17-10-27-14-33-15-4-4-5-13-2-12-1-14-3 4-5 12-1 4v11l4 11 7 9 13 9 8 6 6 7 4 10 1 5v11l-4 16-3 7-5 1-7-3-8-7-5-6-12-5-5-1h-9l-8 3-2 1 1 6 4 10v7l-4 4-2 1h-7l-14-4-27-12-7-6-6-12-1-5v-16l4-17v-7l-3-9-3-5-2-1 1 9-3 1 3 20v11l-3-1-3-26-2-15-3-3-2 12-2-1-2-10v-10l1-1 1-14 1-3h2v-7l1-2h2v6l-2 5-1 14 5 1 1-11 2-2 5-33 3-13h2v10l3-14h-2l1-10 5-17 6-3 3-12h-2l1-6 2-4 3-1z" fill="#E02427"/>
<path transform="translate(898,763)" d="m0 0 8 1h9l2 1v2l-28 2-20 4-24 7-19 8-1 2 26-10 24-7 15-3 9-1h10l1 1h21v1l-35 5-5 1v2l-12 2v4l-12 2v2l21-5 1-2 6-3 3-2h8l5 1h8l-2 2-17 3h-3v2l16-3 2 2 8 1-1 2h-10l-2 1-21 3-25 6h-8l-13 4-5 5-10 4h-2l-1-2-1 4-3 2h-7l2-4 2-2-5 1-3 2h-4v-5l4-2 8-2v-3l-2-1 2-6-6 2 4-5 14-7 12-4 1-3 18-5z" fill="#0B0103"/>
<path transform="translate(1016,420)" d="m0 0h12l10 1v2l-19 1-18 3-27 7-16 6-11 5 6-1 27-10 22-6 18-3h10l5 2 5-1h12v2l-15 1-21 4-5 3-10 1 1 3-9 3-4 1 11-1 11-2 1-3 8-5 13 1h7l-1 2-20 4 17-1 8 2v1l-11 2-15 2-23 5-8 2h-7l-15 4 1-6-5 2-1 3-13 5-2 4v3l-3 2-7-1 3-3h2v-2l-6 2-3 2-4-1 1-5 3-2 2 1 6-4 1-6 2 1v4l7-4 4-2 1-2-10 5v-6l-9 4-2-1 9-7 10-5 13-5v-2l19-5z" fill="#090102"/>
<path transform="translate(804,331)" d="m0 0 2 1-5 5-2 1-1 3 4-1v3l8-4h2l1 18v29l-10 5v3l3-1h7l-3 2-6 3-1 3 4-2 3 1-4 4v3l-3 2-1 4 12-1-4 4-6 5-1 2 10-3-1 51-5-5-8-12-2-10-2-17-1-15v-32l1-33 1-11z" fill="#FCFCFC"/>
<path transform="translate(653,301)" d="m0 0 5 1-2 13v10l-5 26h2l-1 23h-2l-1-15-2 15-1 45h2v6l-1 1v22l1 3 1-12 3 1 1 10 2-2 2 7 1-32 3-2v25h3v10h3l1 2 2-5 1-13 3-1 1-9h1l1 55 1 21h-3l-1-2-1-9-1-35h-2l3 37h-3l-3-21-1-8-2 1 1 16h-3l-1-2v-7l-3 1-2-7-2-13h-2l-1-2 1 16h-3l-2-8-1-10-4-2-1-6v-47l1-30 3-33 4-23 3-10z" fill="#E52F2A"/>
<path transform="translate(894,278)" d="m0 0h8l7 2 3 2v2l-5 1 2 1-2 4h-3v-3h-2v7l-1 1 3 2-11 1-4-2v-2l5-1-1-4 7-1v-4l-16 1-14 2-32 8h-3v2l-9 3-9 4-2 4h-3v-2l-2 2v3l-11 6-1 4 2 3h3v-2l5-1v-2l14-7 16-6 3 1-10 5-10 4-16 8-3 1v2h2v2l9-4h3v2h-4l-2 5-1 2h-2v2l7-3 6-2v2l-8 4v2l-8 4h-2v-3l-4 1 1-4 5-3v-2l-7 4-1 11-1 33v43h-1v-9l-4 1 2 8v6h-2l-2-12 2-50 2-38 2-13h2l1-12 1 2 17-8 29-11 18-5 19-3z" fill="#EB5759"/>
<path transform="translate(996,650)" d="m0 0 3 1h-2l7 12 1 5 3-1 3 2-4 3 1 13-3 13-7 14-6 9-7-5-4-8-4-12-1-6v-11h2v-2h-2v-6l3-6 5-4 6-7z" fill="#E71D27"/>
<path transform="translate(1320,741)" d="m0 0 2 2 4 20 1 10v15l-1 8-9 5-21 11h-1v-45l10-7 6-5 6-9z" fill="#FEE831"/>
<path transform="translate(745,660)" d="m0 0 5 1 5 17 8 16 10 13 9 8v1l-19 1-28 6h-2l1-17 3-20 3-21 2-4z" fill="#F48F3D"/>
<path transform="translate(1021,325)" d="m0 0h4l-2 5-6 8-8 8-18 13-7 5-19 6h-8l-2-3v-5h2l-1-16 24-9 26-8z" fill="#F48F3D"/>
<path transform="translate(1196,305)" d="m0 0h2v5l1-2h5l1-2 7-1v3h-4l-3 10-7 36-2 8h-1v-11l5-27v-5l-2-3-5 26-5 35-3 28v5h2v56h-3l-1-16 1 25-2-4-1-14v16l-3-1-1-4v-48l-1-1v-14l2-23 5-28 2-6 2-1 5-30 3-11z" fill="#D7312E"/>
<path transform="translate(778,233)" d="m0 0h3v11l-3 6-4 19-3 23 4-23 1 2h2l-1 14-3 17-4 4-3 46-2 1v12l1 1 1 18 3 7v4h-2l-4-9-2-5-2-1 2 7-4-4-10-21-3-10h2l1-3 9 21 2 3v-31l1-22 4-28 9-43 4-15z" fill="#E42E2C"/>
<path transform="translate(698,270)" d="m0 0 1 3-5 15-4 20-7 54-3 26h-1v-9l-3-1 1-5 2-21 5-42v-6l-1 2h-3l-2 15-2 8h-1l-1-7h-2l-1 12-2 10-2 1-4 29h-2v-10l4-34 2-9-3-1 3-10 3-12h2l1-7 3-5 3 1v2l5-8h3l-1 6h3v5l4-16 3-5z" fill="#DD3035"/>
<path transform="translate(709,305)" d="m0 0h2v4l4-2h2l2-1 2 1-3 10-9 45h-2l1-13 5-30-2-4-5 24-6 43-3 30-2 49h-1v12l-3-1-2-9v-18l2-25h-2v-20l3-27 5-24 2-1 3-15 5-26z" fill="#D02525"/>
<path transform="translate(1279,765)" d="m0 0h1l1 25h3v11h3l2-5 1-12h3l2-2 1 29 7-4 2 1-9 6 1 36h-3l-1-3-1-30h-2l2 17v8l-3-1-3-20-1 1v9l-3-2v-3l-7 6-5 9-1 3v7l3 7 5 6 8 5 1-3 3 1v3l5 2 11-1 13-4 18-9 2-6v-7l-4-6-11-8v-2l-2-1 15-1h19l1-2 1 6-7-1-24-1v2l5 2 6 5 4 7v7l-4 7-9 6-13 6-12 3-10 1-12-5-9-7-5-8-1-4v-7l4-9 6-8 4-4v-2l-3-2-1-9 1-33 1-11z" fill="#D11D24"/>
<path transform="translate(1420,613)" d="m0 0h2v6h2v6l-2 9-3 9-6 9-15 35-2 1 1-7 14-35v-2l-6 14-4 1-2 8-5 12h-2l3-11 3-8-1-1-11 28-11 35-5 18-2 1-1-7-1-1v-6l2 1 6-22 12-35 10-24 5-9 3-2 2 1 2-6 5-5 6-12z" fill="#E61F27"/>
<path transform="translate(1077,749)" d="m0 0 2 1 1 37h1l3 43 2 9 10 16-1 3-7-10-1-2v12l1 9h-2l-3-18-1-2v-6l-6 2-4-12v12l4 30 4 15 1 5h-3l-4-10-4-23-4-40-2-3-2-12v-12l-2-10-1-16 2-1 4 20 3 21 2 1 2 16 1 2v-19h2l1 3-1-51-1-3z" fill="#DE2727"/>
<path transform="translate(1285,310)" d="m0 0h2l8 14 4 12 1 6v13l-3 15-5 13-5 8h-2l-1 5-2 1-1-4 2-57z" fill="#FDFDFD"/>
<path transform="translate(1455,225)" d="m0 0h3l-3 9-6 15-1 4 3-1 7-16 5-6h3l-3 10-8 24h2l-3 9-5 24-2-1-8 36-2 6h-2l1-9 1-7-2-8 1-10 4-14 5-1 2-10h-2l-1-2-6 13-5-1 2-10 3-10h4l3-7-7 2-2 4 1-5 4-1 3-11 6-16z" fill="#E62C2C"/>
<path transform="translate(1272,645)" d="m0 0 5 1-1 9-2 16-1 10-1 14 1 2-2 21h-2v-16h-2l-1 27v33l2 1-1 7h-2l1 20h-3l-2 4v-12l-31 6-14 2h-6l3 10 3 5-1 3-5-8-2-5v-6l10-2 42-7v-23l2-52 3-30 5-25z" fill="#E31D26"/>
<path transform="translate(1310,647)" d="m0 0 3 2 2 7 2 11 4 9v12l-2-1-7-25-1 4 7 26 1 1v9l-5 17-9 13-6 4v-17l1-2 8-65z" fill="#FDE031"/>
<path transform="translate(816,417)" d="m0 0h4v16l-2 32 3-36 2-1 1 2-1 20-1 12-1 3v13h1l-1 17-3 16-1 2-3-1 4-29v-3l-2 4-2 9-3-1v-16l-10-13h-4l-9-10 8 16 6 10v3l-4-2-14-24v-2h2l-7-13v-2l3 1 6 10 5 1 4 5 2 1v3l6 1 6 9 1-51z" fill="#E6483F"/>
<path transform="translate(909,797)" d="m0 0 10 2 11 7 2 2 1-4h3l3 12 7 10 5 6v-3-3l5 2 14 9 1 2h-3l10 3v2h-10l-14-5-11-10-4-6v10l-3 11-8 16-6 9 1 6 6 11 8 10 8 7 12 5h15l14-5 8-6h2v-15l4-5 9-1 10 3h13l9-3 4-5 1-2v-8l-2-7 1-4 3 7 1 4v8l-4 7-4 3-11 3h-11l-8-3h-8l-4 3-1 7 1 7-4 4-12 7-9 3-5 1h-11l-11-4-9-6-9-10-9-16-1-6 10-16 5-11 2-8v-12l-3-9-8-8-10-5 1 12-5 10-5 4 7-14v-7l-1-6-3-1z" fill="#E71D27"/>
<path transform="translate(653,301)" d="m0 0 5 1-2 13v10l-5 26h2l-1 23h-2l-1-15-2 15-1 45h2v6l-1 1-1 15h-1v9l-3 1-1-6v-47l1-30 3-33 4-23 3-10z" fill="#E52C29"/>
<path transform="translate(894,278)" d="m0 0h8l7 2 3 2v2l-5 1 2 1-2 4h-3v-3h-2v7l-1 1 3 2-11 1-4-2v-2l5-1-1-4 7-1v-4l-16 1-14 2-32 8h-3v2l-9 3-9 4-2 4h-3v-2l-2 2v3l-10 5-2-1 5-6h-2-3l-1 4v-9l1 2 17-8 29-11 18-5 19-3z" fill="#E94D4A"/>
<path transform="translate(859,853)" d="m0 0 3 1-11 5 10 9 4 5 3 7v10l-7 17-6 8-5 3-9 1-11-4-10-8-13-13-12-16-2-5h-3l1 17 4 10 7 9v2l-10-3-9-6-5-4-6-8-7-14-4-16-3 4-3 11v22l4 17 6 16 10 21v8l-6 9-2-1 5-9-1-9-11-24-5-15-3-14v-18l3-14 6-9h2l5 21 7 14 8 9 9 6 4 1-6-9-2-7v-16l2-3 4 1 12 16 11 13 9 8 8 5 6 2h8l6-4 7-11 5-14-1-7-5-10-9-8-3-2v-2z" fill="#E11C26"/>
<path transform="translate(1318,263)" d="m0 0 4 1 4 17 3 8-1 13 1 4-4 1-1 7-2 6h-2l-6-18-3-14v-19l5-5z" fill="#F4893C"/>
<path transform="translate(998,587)" d="m0 0 12 2 13 7 8 8 4 11 1 6v8l-11-2-2-1v-2l2-2h-10v-2l-2-1-1-14-4-9-7-6z" fill="#FEE632"/>
<path transform="translate(1322,687)" d="m0 0 3 1 7 28v4h2l7 28 5 33h2l3 8 4 19-1 13-2-3-5-22v-4l-3-1-13-58-9-36-1-5h2z" fill="#F3813B"/>
<path transform="translate(1191,440)" d="m0 0h5l1 3 1 13h2l2 21 1 12v9l2 10-4 1 2 12h-3l-2-3-2-12-1-15-3-3-2-5 1 7h-3l-4-11 1-4v3h4v-3h2l1 2 1-2-1-15-1-2z" fill="#E52728"/>
<path transform="translate(1311,661)" d="m0 0 2 1 7 25v-15l2 3 5 14-1 4-1-5h-2v4h-2l4 13 8 32 10 45 5 24v7h-3l-5-28-6-25-3-16-9-36-2-4-3 12-3 3 2-9 2-8v-9l-3-9-5-18z" fill="#A1141B"/>
<path transform="translate(1482,797)" d="m0 0h1l3 27 5 15 4 4 35 16 24 12 20 12 16 11 10 8 8 11 2 6v14l-4 11-9 13-4 4 1 6 4 5-1 3-7-10v-5l7-7 7-11 3-8v-15l-3-7-7-9-10-8-17-11-17-10-27-14-33-15-4-4-5-13-2-12-1-14-3 4-5 12-2 7h-1l1-10 5-12 5-5z" fill="#D91B24"/>
<path transform="translate(1103,281)" d="m0 0 9 2 12 5 14 9 5 4v2h2v2l3 1 3 5-4-1 11 19 4 16v11l-2 1-3-19-4-11-5-8 2 9-12-15-9-9-4-2v-2h-3l-1-3 5 2 2 1-2-5h2l1-2-9-3-16-5z" fill="#D53237"/>
<path transform="translate(716,959)" d="m0 0h21l3 2-5 3-10 5-3-1 11-6h3v-2l-22 2-17 4-16 6-25 13-9 4-4 1h-13l-12-4-11-8-9-11-9-3-13-2h-17l-1 1 7 4 5 6 2 7v8l-3 11-7 11-2 3v4l6 3v1l-7-1-2-3 1-6 3-5h2l1-4h2l1-5 2-8v-9l-3-9-5-4-8-3 1-3 2-1h26l15 3 7 7 7 8 11 7 6 2h17l10-4 6-2v-2l22-11 18-6z" fill="#E71D27"/>
<path transform="translate(1470,825)" d="m0 0h1l2 12 5 10 5 6 13 9 8 6 6 7 4 10 1 5v11l-4 16-3 7-5 1-7-3-8-7-5-6-12-5-5-1h-9l-8 3-2 1 1 6 4 10v7l-4 4-2 1h-7l-14-4-27-12-5-5h3l8 5 27 11 7 2h9l2-3v-7l-5-12 1-4 5-4 3-1h18l11 4 6 5 7 8 4 3 7 1 4-11 2-9v-13l-3-10-6-9-15-10-10-9-6-9-3-10v-6z" fill="#DF1C25"/>
<path transform="translate(1216,808)" d="m0 0h2l6 9-2 9-8 21-9 17-7 9-5 6-10 6-2 1h-12l-10-5-8-7-10-14-9-16-1-4-5 5-2 6 1 9 6 10 8 8-1 2-4 1-13-1-10-5-12-11-3-4v-2l3 1 7 8 9 7 6 3 14 2-9-11-4-8v-12l4-8 3-3 3 1 9 17 9 13 7 8 9 6 6 2 9-1 10-6 8-9 8-13 9-20 5-14-1-6-4-5z" fill="#DB1B25"/>
<path transform="translate(1094,652)" d="m0 0h1v8l-6 40-4 37v14l1 8-3 14h-1v-21l1-12-5-1 1-2 4 1 1-5h-5l1-17 1-9 2-1 5-41 3-10h2z" fill="#DE1B25"/>
<path transform="translate(948,784)" d="m0 0 1 2h2l2 9 7 12 3 4-6-2 7 6 6 4 4 4 9 2h6l1 2-6 1h-8l-8-5-4-4-10-5-2 4 5-1 3 2v2h-3l18 9v1l-12-1-8-5-7-2-1 2-4-7v-5l5-2 3 2 1-2-3-1 1-4v-2l-1-9-1-2z" fill="#E9322B"/>
<path transform="translate(1021,803)" d="m0 0h2l3 6 2-1 1-5 2 2-1 5-4 4 1 7-5 9-10 13-5 2-9-1-15-1-2-2 5-2 14-3 10-7 5-6 3-1v3l3-6 1-3-1-6v-4z" fill="#DD2727"/>
<path transform="translate(1424,253)" d="m0 0h3l-2 9-6 23-1 13-3 20 2-4-1 10-4 17-3 5-3-1v-11l4-26 6-28z" fill="#49120E"/>
<path transform="translate(819,334)" d="m0 0h2v14l3 1-1 4-1-1-1 40-2-1-1 2-5 1h-10l-1-3 10-5 1-18h1l1-31 3-1z" fill="#EC575A"/>
<path transform="translate(816,417)" d="m0 0h4v16l-2 32 3-36 2-1 1 2-1 20-1 12-1 3v13h1l-1 17-3 16-1 2-3-1 4-29v-7l-1-4h-2l1-40-3 1-1-14z" fill="#EA372C"/>
<path transform="translate(909,797)" d="m0 0 10 2 11 7 2 2 1-4h3l3 12 7 10 5 6v-3-3l5 2 14 9 1 2h-3l10 3v2h-10l-14-5-11-10-4-7h-3l-3-9-8-8-10-5 1 12-5 10-5 4 7-14v-7l-1-6-3-1z" fill="#E82628"/>
<path transform="translate(698,270)" d="m0 0 1 3-5 15-4 20-7 54-3 26h-1v-9l-3-1 1-5 2-21 4-34 2-1 4-25 4-16 3-5z" fill="#E82729"/>
<path transform="translate(1034,645)" d="m0 0h3v6l-4 1v-2l-9 5-1-2-5 6 8-4 9-2v2l-14 6-14 7h-2l-6-12-2-5h2v-2l6-2h4l2 6 5-1 6-3h4l2-2z" fill="#E72428"/>
<path transform="translate(675,430)" d="m0 0h1l1 55 1 21h-3l-1-2-1-9-1-35h-2l3 37h-3l-3-21v-11h2v-11l1-1 1-13 3-1z" fill="#EA372E"/>
<path transform="translate(1334,606)" d="m0 0 3 1 6 22v2l4-2h5l-1 2h-4v2h-3l15 55 4 17v6l-4-2-5-18-1-9-12-45-5-17-2-9z" fill="#E01D26"/>
<path transform="translate(844,401)" d="m0 0h3v5l2 1v22l-4 55-2 1-2-1 1-22h-1l1-27 1-10z" fill="#E9342B"/>
<path transform="translate(1411,700)" d="m0 0 1 3-8 25-8 33-4 23-3-1v-2h-2l2-12 1-5h-2l1-10 5-17 6-3 3-12h-2l1-6 2-4 3-1z" fill="#E71D27"/>
<path transform="translate(742,661)" d="m0 0h3l-2 16-3 23 5 11 2 8 2 1-16 3 1-17 3-20 3-21z" fill="#E71D27"/>
<path transform="translate(1281,822)" d="m0 0 1 4-7 6-5 9-1 3v7l3 7 5 6 8 5 1-3 3 1v3l5 2 11-1 13-4 18-9 2-6v-7l-4-6-11-8v-2l-2-1 15-1h19l1-2 1 6-7-1-24-1v2l5 2 6 5 4 7v7l-4 7-9 6-13 6-12 3-10 1-12-5-9-7-5-8-1-4v-7l4-9 6-8z" fill="#E71D27"/>
<path transform="translate(803,189)" d="m0 0h2l-2 9-3 11 4 1 2-6h3l-4 18h3l-2 9-5-5-3 8h-2l1-8-5 19-2 1 1-12 3-12h-2l2-9 8-23z" fill="#EC4A3C"/>
<path transform="translate(1211,366)" d="m0 0 2 1v6h2l1 11v11l-2 29h-4l-1 9h-1v-23h-1v-11l3-32z" fill="#E42828"/>
<path transform="translate(1055,735)" d="m0 0 3 2v33l3 31 1 11-2-2-4 2-2-4-1-10v-20l1-41z" fill="#E72127"/>
<path transform="translate(1061,653)" d="m0 0h5l-1 11-4 17-4 1-2 29-1 3h-3v-16l3-23 4-19-4-1z" fill="#E42127"/>
<path transform="translate(1092,598)" d="m0 0 10 1 15 4 16 7 1 2-30 2-9-11z" fill="#F5903E"/>
<path transform="translate(1283,316)" d="m0 0h2l-2 43-1 34-3 7h-1v-53l2-23 2-7z" fill="#EC4E41"/>
<path transform="translate(1082,385)" d="m0 0 2 2-1 60 1 11 4-1v11h-1v-5h-2l1 21h-2l-2-4-1-12-2-7v-23l2-43z" fill="#E72228"/>
<path transform="translate(724,366)" d="m0 0 2 2v5h2l2 7-2 23-1 21h-4v-6h-1l-1-9h-2l2-24 1-4 1-14z" fill="#D62626"/>
<path transform="translate(768,721)" d="m0 0h10l2 5 6 1-3 3-7 1 1-3-13 1-28 6h-4l1-3 16-5-11 2h-4v-2l18-4z" fill="#D81B24"/>
<path transform="translate(888,672)" d="m0 0 2 1-12 9-13 8-11 6h-2l1-13 8-3z" fill="#FDFDFD"/>
<path transform="translate(711,455)" d="m0 0 2 1 1 20 2 5v20l1 8h-2v13l-4-3-2-9-1-19-1-2 3-1v-24z" fill="#E82628"/>
<path transform="translate(1640,944)" d="m0 0h8l-1 10-2 13v11l3 9 5 5 15 14 6 7 1 8h-2l-2-7-7-8-9-9-8-7-4-8-1-13 3-19 1-4-11 2-9 6-8 9-12 21-4-2-4-5v-2l3 1 4 5 8-15 9-12 11-8z" fill="#E21C26"/>
<path transform="translate(1140,379)" d="m0 0 1 3-9 10-6 5-8 5-14 4h-12l-1-3h3l-2-4 5-2 19-1 8-4 6-4 4-2z" fill="#E93435"/>
<path transform="translate(794,342)" d="m0 0h1v81h-1v-9l-4 1 2 8v6h-2l-2-12 1-18 2-21 1-24z" fill="#E92E2A"/>
<path transform="translate(1345,318)" d="m0 0 2 1v8l2 6v5h2l3 13 1 6-13 4h-2l1-11 3-15v-11z" fill="#F3823B"/>
<path transform="translate(836,417)" d="m0 0 3 6 2-1-1 15-1 6v8l1 1v11h1v8l-2 7-2 1v-11h-7l3-1 1-14 1-9v-26z" fill="#E32027"/>
<path transform="translate(894,627)" d="m0 0h5l-1 3h5v3l-3 2-13 2h-10l-9 2-9 1v-3l9-4z" fill="#E82C2A"/>
<path transform="translate(900,634)" d="m0 0 4 1-4 2-5 2-16 4-10 1v-2l-27 9-14 6-3 3-2-3 8-4 18-7 4-1v-2l12-4 12-3h10z" fill="#2C0909"/>
<path transform="translate(778,233)" d="m0 0h3v11l-3 6-4 19-3 21-3 1-1-14 7-32 3-11z" fill="#4D110F"/>
<path transform="translate(887,290)" d="m0 0h3v2l-36 9-2 2 9-2 23-6h3l-1 3-22 6-18 6h-2l2-9 11-4z" fill="#E72428"/>
<path transform="translate(1e3 803)" d="m0 0 1 2-1 2 3-1-1 4-9 5 10-1-1 3-9 3 2 2-1 1-13 1-7-2-2-3 10 1v-3l-2-1 5-1-1-3 9-3 5-3z" fill="#E21D26"/>
<path transform="translate(917,765)" d="m0 0 1 3-34 4-20 5-21 7-15 6h-3l1-3 19-8 27-8 26-4h19z" fill="#E71D27"/>
<path transform="translate(1112,423)" d="m0 0h3l7 25 14 37 3 9-3-1-8-19-10-28v-3l-4-2-4-13v-4z" fill="#E71D27"/>
<path transform="translate(1061,286)" d="m0 0h2v2l-4 1-32 3-34 8h-2v-2l-22 7-3-1 27-10 7-2h4v2l13-3 20-3z" fill="#050102"/>
<path transform="translate(757,860)" d="m0 0 2 2-4 13v22l4 17 6 16 10 21v8l-6 9-2-1 5-9-1-9-11-24-5-15-3-14v-18l3-14z" fill="#E51C26"/>
<path transform="translate(1008,313)" d="m0 0h7v2l-28 10-31 13-4-1 3-3 21-9 29-11z" fill="#E72228"/>
<path transform="translate(718,306)" d="m0 0 3 1-3 10-9 45h-2l1-13 5-30-2-4h-2l1-4 4-4h3z" fill="#E62628"/>
<path transform="translate(1077,749)" d="m0 0 2 1v52l1 14v11h-1l-2-16-1-1-1-51-1-3z" fill="#EC4B30"/>
<path transform="translate(1210,305)" d="m0 0 3 1-1 2h-4l-3 10-7 36-2 8h-1v-11l5-27v-5l-2-3-2 1 1-5 2-4h5l1-2z" fill="#EA392C"/>
<path transform="translate(1045,653)" d="m0 0h2v3l-13 6h1v9l-2 3-6-1-7-6v-2l-3-1z" fill="#F27D39"/>
<path transform="translate(1470,825)" d="m0 0h1l2 12 5 10 5 6 13 9 8 6 6 7 4 10 1 5v11l-4 16-1 3h-2l4-18v-13l-3-10-6-9-15-10-10-9-6-9-3-10v-6z" fill="#E71D27"/>
<path transform="translate(1044,850)" d="m0 0 2 1 3 10v8l-4 7-4 3-11 3h-11l-8-3h-8l-4 3-1 7 1 7-4 4-10 6-2-1 5-4 5-3 3-1v-15l4-5 9-1 10 3h13l9-3 4-5 1-2v-8l-2-7z" fill="#D31A23"/>
<path transform="translate(1159,391)" d="m0 0h2v3h3l-1 5-6 11h-3l1-4v-2l-10 9-7 4-3-1h2l2-5 8-6 5-6 2-1 2-4h2z" fill="#E82628"/>
<path transform="translate(897,310)" d="m0 0h6v1l-30 7-13 4-3-1 1-3-8 2h-5l1-2 24-7h8l1 2 9-1z" fill="#E82729"/>
<path transform="translate(1044,751)" d="m0 0 2 1-11 8-1 3 4 18-1 13-1 6-1-4h-2l-2-25-2-8v-5l6-1z" fill="#DA1B24"/>
<path transform="translate(1320,736)" d="m0 0 3 4 4 17 2 18v9l-2 14-8 4-4-1 10-5 1-8v-15l-3-21-2-9-1-1-5 9-7 8-10 7v-3l11-8 2-4 2-1 1-3h2l2-7z" fill="#B9171F"/>
<path transform="translate(1132,338)" d="m0 0h4l4 8v3h2l1 4-1-8-1-6 3 1 2 6 1 7v11l-6 2 1 2v3h-3v-15l-4-11-3-5z" fill="#E72A29"/>
<path transform="translate(880,367)" d="m0 0h22l-1 4-18 2-8 3-17 3h-3v-2l7-2 12-2 2-4h-5v-1z" fill="#DB2426"/>
<path transform="translate(807,203)" d="m0 0 2 2-4 17h3l-2 9-5-5-3 8h-2l1-11 1-8 2-6 4 1 2-6z" fill="#E6342B"/>
<path transform="translate(644,391)" d="m0 0h1l1 50 2 10 1-12 3 1v15l-1 4 1 12h-3l-2-8-1-10-3-2 1-4z" fill="#ED5432"/>
<path transform="translate(1390,693)" d="m0 0h2l-1 8-8 27-6 26-1 2h-2l1-10 9-35z" fill="#E71D27"/>
<path transform="translate(716,959)" d="m0 0h21l3 2-5 3-10 5-3-1 11-6h3v-2l-22 2-17 4-16 6-23 12h-2v-2l5-1v-2l22-11 18-6z" fill="#DC1B25"/>
<path transform="translate(1126,842)" d="m0 0v3l-2 6 1 9 6 10 8 8-1 2-4 1-13-1-10-5-12-11-3-4v-2l3 1 7 8 9 7 6 3 14 2-9-11-4-8v-12l3-5z" fill="#E71D27"/>
<path transform="translate(878,660)" d="m0 0h5v2l-10 3-8 4-9 3-15 7-7 3h-3l1-4 16-7 27-10z" fill="#E71E27"/>
<path transform="translate(1011,616)" d="m0 0 3 1 1 5 10-1v3h-2v2l5 1-4 1-6-2h-8l-12 4h-7l1-2 5-1-2-1v-2l3-1 1-3 3 1h10l-3-4z" fill="#DE2527"/>
<path transform="translate(1e3 426)" d="m0 0h7l-1 2-20 5-24 8-12 5h-5l2-3 20-8 24-7z" fill="#E71D27"/>
<path transform="translate(1e3 647)" d="m0 0h4l1 5-6 4-1 2 1 2 5-1 3-1 1-2 3 5v3l-9 4h-2l-6-12-2-5h2v-2z" fill="#F3853B"/>
<path transform="translate(1060,766)" d="m0 0 2 3 5 31v17l-3-3-2-9v-12l-2-10-1-16z" fill="#EE5E33"/>
<path transform="translate(1355,825)" d="m0 0 2 4-1 2-6-1-24-1v2l5 2 6 5 4 7v7l-4 7-9 6-6 3h-2v-2l16-8 2-6v-7l-4-6-11-8v-2l-2-1 15-1h19z" fill="#AB151D"/>
<path transform="translate(1344,773)" d="m0 0h1l1 8h2l3 8 4 19-1 13-2-3-6-26-2-12z" fill="#E71D27"/>
<path transform="translate(1335,755)" d="m0 0h2l8 36 3 15v7h-3l-5-28-5-21z" fill="#E71D27"/>
<path transform="translate(1183,417)" d="m0 0h1l1 24 2-1v26h-3l-1-16 1 25-2-4-1-14v-21l1-16z" fill="#CF2425"/>
<path transform="translate(704,440)" d="m0 0 5 1v44h-3l-1-3 1-5v-13l-2-4z" fill="#E71D27"/>
<path transform="translate(725,306)" d="m0 0 2 4 3 2h5l3-1 2 13 1 8-1 2 1 8-3-2-4-18-2-6-3 5h-2l1-8h-3z" fill="#E93532"/>
<path transform="translate(1027,266)" d="m0 0 5 5 4 9v2l-3 1v2h3v3l-12 1 1-8z" fill="#F5903E"/>
<path transform="translate(816,417)" d="m0 0h4v16l-3 26h-1v-27l-3 1-1-14z" fill="#F17655"/>
<path transform="translate(1081,442)" d="m0 0h1l2 16 4-1v11h-1v-5h-2l1 21h-2l-2-4-1-12-1-1v-24z" fill="#E7523B"/>
<path transform="translate(1244,404)" d="m0 0 3 1 13 28-1 4 5 9-1 3-7-10-8-15 1-4 7 11-12-25z" fill="#E31E26"/>
<path transform="translate(705,702)" d="m0 0h1l-1 21-1 10h-3l-1 7-2-2 1-18 2-12 1-2h2z" fill="#E71D27"/>
<path transform="translate(1213,308)" d="m0 0 1 3h3l1 2 7-2 1 2 1 10 1 8-1 1 1 10-3-3-3-12v-9l-5-1-1 3h-1v-7l-3-1z" fill="#EA3933"/>
<path transform="translate(1070,843)" d="m0 0h2l4 30 4 15 1 5h-3l-4-10-4-23-1-16z" fill="#DE1B25"/>
<path transform="translate(1115,470)" d="m0 0h2l8 20 2 9 3 9-3 1-5-11-8-24z" fill="#E9322D"/>
<path transform="translate(1128,315)" d="m0 0 5 3 7 7 4 7v2l3 1 4 15v10h-2l-3-15v-4l-3-1-6-11-9-12z" fill="#240807"/>
<path transform="translate(893,714)" d="m0 0 4 1-6 3-33 9-14 5h-4v-2l19-7 25-7z" fill="#E72127"/>
<path transform="translate(786,262)" d="m0 0h1l-1 12-2 10-3 2-4 28-1 2h-2l2-18 4-24 2-2 1 2 2-11z" fill="#E72428"/>
<path transform="translate(1273,263)" d="m0 0 2 2-4 19h-3l-1 11-3 19-1 2h-2l4-29 3-14 3-3z" fill="#E71D27"/>
<path transform="translate(700,777)" d="m0 0h3l1 11 1 2v9l-1 2v6l1 1v6l-2 1-3-2z" fill="#050102"/>
<path transform="translate(1394,913)" d="m0 0 10 6 27 11 7 2h9l2-3v-7l-1-5h2l2 6v7l-4 4-2 1h-7l-14-4-27-12-5-5z" fill="#E71D27"/>
<path transform="translate(1335,620)" d="m0 0h2l11 39 7 26v3h-2l-14-50-4-14z" fill="#EE5933"/>
<path transform="translate(896,379)" d="m0 0 1 3-2 7-36 6-11 1 1-2 30-6 14-2 1-3h-10l1-2 10-1z" fill="#F07C75"/>
<path transform="translate(553,962)" d="m0 0 5 1 7 4 5 6 2 7v8l-3 11-7 11-2 3v4l6 3v1l-7-1-2-3 1-6 3-5h2l1-4h2l1-5 2-8v-9l-3-9-5-4-8-3z" fill="#D01A23"/>
<path transform="translate(948,784)" d="m0 0 1 2h2l2 9 7 12 3 4-6-2 3 4-4-2-1-1-1 2-5-2 1-4v-2l-1-9-1-2z" fill="#CB1B22"/>
<path transform="translate(760,735)" d="m0 0h19l1 5-3-1h2v-2l-7 1-17 2-21 5-3-1 1-2 17-5z" fill="#EC482F"/>
<path transform="translate(859,853)" d="m0 0 3 1-11 5 10 9 4 5 3 7v10l-7 17-5 7h-2l2-5 5-8 5-14-1-7-5-10-9-8-3-2v-2z" fill="#DF1C25"/>
<path transform="translate(901,774)" d="m0 0h8l-3 3-10 2-4 3h-3l-1 3-17 4h-4v-2l9-2h3v-4l8-2h4v-2z" fill="#E71D27"/>
<path transform="translate(982,753)" d="m0 0 6 2 10 9 2 2-2-6 5 3 2 6h-2l2 9h-2l-1 2-6-12-5-5-7-6-2-1z" fill="#E21C26"/>
<path transform="translate(993,640)" d="m0 0h3v2l7-1v2l-4 1v2l-9 6-9 9-1 2-2-1 3-6 9-9-4 3h-2l2-4 2-5h2v2z" fill="#E71E27"/>
<path transform="translate(847,335)" d="m0 0h1l1 20v17l9-2h5v4l-15 4-3-1 1-2 1-1h-1v-10l1-1z" fill="#E9352B"/>
<path transform="translate(1055,743)" d="m0 0h1l1 21 2 18v20l-2 3-1-4-1-14z" fill="#F3803A"/>
<path transform="translate(1081,819)" d="m0 0h1v11h2l2 9 10 16-1 3-7-10-1-2v12l1 9h-2l-3-18v-9h-3v-2h2l-1-7z" fill="#6C1B14"/>
<path transform="translate(815,362)" d="m0 0h1l1 22h1v9l-5 1h-10l-1-3 10-5 1-18h1z" fill="#D73028"/>
<path transform="translate(1219,370)" d="m0 0 2 3 8 22v2h2l5 13-1 4-4-7v-2l-3 1-5-11v-9l-4-10z" fill="#E87775"/>
<path transform="translate(824,465)" d="m0 0h2v2l4-1-2 20-2 14h-3l1-27-1-4z" fill="#E82A29"/>
<path transform="translate(698,355)" d="m0 0h1l-1 13-3 21-3 26h-1v-10l1-12-2-5 2-15 2-1z" fill="#F28A70"/>
<path transform="translate(1279,765)" d="m0 0h1v50l-2-3-1-2v-33l1-11z" fill="#EC462F"/>
<path transform="translate(1140,292)" d="m0 0 5 1 7 7 7 10 3 6v2l-4-2-10-11-3-5-5-6z" fill="#E83D37"/>
<path transform="translate(799,880)" d="m0 0 4 4 11 14 8 8 12 8 6 2h8l6-3 1 2-5 3-9 1-11-4-10-8-13-13-9-12z" fill="#E71D27"/>
<path transform="translate(694,418)" d="m0 0h1v43h-1v12l-3-1-2-9v-18h1l1 17 1-32z" fill="#EF613E"/>
<path transform="translate(813,325)" d="m0 0h3v2h-4l-2 5-1 2h-2v2l7-3 6-2v2l-8 4v2l-8 4h-2v-3l-4 1 1-4 5-3 3-6z" fill="#DD2927"/>
<path transform="translate(698,410)" d="m0 0h2l-1 57-2-1v-53z" fill="#EC492F"/>
<path transform="translate(1182,406)" d="m0 0h1v10h2v-6h2v30l-3 2-1-22-1 16-2 1 1-20z" fill="#EE5E34"/>
<path transform="translate(725,383)" d="m0 0h1v9h2l-1 32h-4v-21z" fill="#D5412B"/>
<path transform="translate(775,269)" d="m0 0 1 2h2l-1 14-3 17-4 3 1-13z" fill="#E22527"/>
<path transform="translate(920,634)" d="m0 0h4v2l-12 2-23 4-21 6-6 2-3-1 20-7 20-5z" fill="#FCF6F4"/>
<path transform="translate(1218,322)" d="m0 0h2v7l2 1 2 9v4h2l6 18v5l-3 1-2-10-4-10-2-12h-2v-4h-2v-7z" fill="#F07966"/>
<path transform="translate(665,330)" d="m0 0 1 3h2l1 11-2 1-4 29h-2v-10z" fill="#E71D27"/>
<path transform="translate(731,322)" d="m0 0 2 3 4 15v4h2l6 18-1 5h-3v-7l-4-10-3-13h-2l-1-6-2-1 1-7z" fill="#F07868"/>
<path transform="translate(817,333)" d="m0 0h2l-1 4h-2l-1 48h-1l-3-48z" fill="#3A0B0B"/>
<path transform="translate(1443,267)" d="m0 0 1 3-3 8-1 8-2 4-5-1 2-10 3-10h4z" fill="#E32127"/>
<path transform="translate(778,233)" d="m0 0h3v11l-3 6-2 8-1-4h-2l1 4-3 8-1-4 7-28z" fill="#A7241F"/>
<path transform="translate(1266,235)" d="m0 0h1v7l-4 13-4 22-2 14h-1l-1-11 5-25 5-18z" fill="#050102"/>
<path transform="translate(1248,782)" d="m0 0h5l-1 2-36 6h-6l3 10 3 5-1 3-5-8-2-5v-6l10-2z" fill="#CD1922"/>
<path transform="translate(1069,719)" d="m0 0h1v15l-1 11-1 28-2-1v-31l2-21z" fill="#E71D27"/>
<path transform="translate(1114,633)" d="m0 0h32l11 2-2 2-24-1h-17z" fill="#E72228"/>
<path transform="translate(944,347)" d="m0 0h2l1 4 4-4h2l1 6v13l-2-1-3-8-1 7h-2l-2-9z" fill="#E71D27"/>
<path transform="translate(955,789)" d="m0 0 3 2 5 11 4 6 5 4 4 3-1 3-4-1-3-2-6-8-7-11-2-5z" fill="#DC1B25"/>
<path transform="translate(785,618)" d="m0 0h3v2l-15 4-16 4h-6l2-5 7-1 2 1z" fill="#E71D27"/>
<path transform="translate(1140,379)" d="m0 0 1 3-9 10-6 5-8 5-7 1 3-2h2v-2l4-2-2-2 7-4 5-3 4-2z" fill="#ED5C55"/>
<path transform="translate(1424,253)" d="m0 0h3l-2 9-6 23v7l-4-3 1-9z" fill="#EA362C"/>
<path transform="translate(1345,318)" d="m0 0 2 1v8l2 6v5h2l3 13v3h-5l-2-17-2-3-1-10z" fill="#E71D27"/>
<path transform="translate(1316,586)" d="m0 0 3 1 5 18v2l3 1 3 8v3h-2l-6-8-5-16z" fill="#E71F27"/>
<path transform="translate(972,678)" d="m0 0 2 2 3 18 4 12 2 4-1 3-7-11-3-9z" fill="#E71D27"/>
<path transform="translate(1290,803)" d="m0 0h2l1 12-2 2 1 25-3-1-3-22h2z" fill="#E71D27"/>
<path transform="translate(1409,650)" d="m0 0 3 2-3 9-11 26-2 1 1-7 8-20z" fill="#E71D27"/>
<path transform="translate(786,452)" d="m0 0 3 4 11 20 2 3v3l-4-2-14-24v-2h2z" fill="#E9302A"/>
<path transform="translate(822,428)" d="m0 0 2 2-1 20-1 12-2 11h-1v-19l2-25z" fill="#EC4F39"/>
<path transform="translate(1068,807)" d="m0 0 2 1 1 16v19l-2 1-1-4-2-20-2-3 2-2v2h2z" fill="#D31A23"/>
<path transform="translate(1099,642)" d="m0 0 3 1 12 1-5 4-5 3-9 1-1-5 3-1z" fill="#E71D27"/>
<path transform="translate(956,808)" d="m0 0 4 1 8 6 7 3v-3l7 2v3h-9l3 2 9 2-4 2-9-3-5-5-9-7z" fill="#050102"/>
<path transform="translate(669,464)" d="m0 0h1l3 32-2 2-2-5-2-17v-11z" fill="#E9332B"/>
<path transform="translate(916,317)" d="m0 0 4 2 1 5 4 1 3-3 3 3-1 3-10 4-2-1 1-2h-6v-2l4-2z" fill="#E52E29"/>
<path transform="translate(721,831)" d="m0 0h1l1 9v35l-2-4-2-38z" fill="#050102"/>
<path transform="translate(1034,645)" d="m0 0h3v6l-4 1v-2l-9 5-1-2-3 3-4 1-2-4 8-4h4l2-2z" fill="#E73B2C"/>
<path transform="translate(1415,676)" d="m0 0h1l-1 7-11 28-3 2-1-2 14-34z" fill="#E71D27"/>
<path transform="translate(765,315)" d="m0 0 2 3v34l-4 3v-14z" fill="#C61921"/>
<path transform="translate(1377,761)" d="m0 0h2l-1 10-4 25h-3l2-17z" fill="#E71D27"/>
<path transform="translate(760,923)" d="m0 0h2l13 28v8l-6 9-2-1 5-9-1-9-11-24z" fill="#E21C26"/>
<path transform="translate(1080,787)" d="m0 0h1l2 31v12h-1l-1-5h-1l-2-28h2z" fill="#E71D27"/>
<path transform="translate(684,281)" d="m0 0h3l-2 11-3 12-2-4-1-1v-10z" fill="#3C0E0C"/>
<path transform="translate(1644,983)" d="m0 0h2l5 8 11 9 9 9 4 7v5h-2l-2-7-7-8-9-9-8-7-3-5z" fill="#CC1922"/>
<path transform="translate(815,430)" d="m0 0 2 2-1 27h-2v8h-1v-34z" fill="#1B0706"/>
<path transform="translate(734,364)" d="m0 0h2l11 31 2 7h-2l-7-16-6-19z" fill="#E72127"/>
<path transform="translate(1210,305)" d="m0 0 3 1-1 2h-4l-2 4-4 10-3-3-1-3-2 1 1-5 2-4h5l1-2z" fill="#E33630"/>
<path transform="translate(958,834)" d="m0 0 9 1 4 4h-3l10 3v2h-10l-10-4 3-2-3-2z" fill="#AE181E"/>
<path transform="translate(1103,281)" d="m0 0 9 2 12 5 14 9 1 2-5-2-16-8-14-4z" fill="#FDFDFD"/>
<path transform="translate(932,642)" d="m0 0h9l-1 2-34 5h-6v-2l10-2z" fill="#E72328"/>
<path transform="translate(1009,629)" d="m0 0h5v2l4 1-10 3-7 4h-2l-1-2-3 2h-3v-2l10-5z" fill="#D11F24"/>
<path transform="translate(1222,364)" d="m0 0 2 1 9 27 3 7-1 4-7-15-6-19z" fill="#E72428"/>
<path transform="translate(1292,685)" d="m0 0h2l-2 22-1 7-2 1-1-13v-10h3z" fill="#E71D27"/>
<path transform="translate(1090,647)" d="m0 0h2l-1 5-3 10h-3l-3 3 1-9 2-7z" fill="#DD2026"/>
<path transform="translate(779,439)" d="m0 0 3 1 6 10 5 1 3 4 4 7v2l-4-2-8-9-3-1-6-11z" fill="#EB4237"/>
<path transform="translate(1056,298)" d="m0 0h6v2l-24 4-17 1v-2z" fill="#E71E27"/>
<path transform="translate(1608,934)" d="m0 0 1 3-6 12-8 10-2 2 1 6 4 5-1 3-7-10v-5l7-7 7-11z" fill="#E71D27"/>
<path transform="translate(948,660)" d="m0 0 1 4 1 8v22h-2l-1-14-2-1 1-15z" fill="#E71D27"/>
<path transform="translate(1334,606)" d="m0 0 3 1 6 22v2l4-2h5l-1 2h-4v2h-3l-1 3-2-4-3-10v-4h-2l-2-7z" fill="#801016"/>
<path transform="translate(797,304)" d="m0 0 1 2 4-2h6v2l2 1v4l-10 5-2-1 5-6h-2-3l-1 4z" fill="#CD2F2A"/>
<path transform="translate(992,586)" d="m0 0h12l2 2h-7l6 4 6 7 2 6v13l-2-2-1-12-4-8-6-5-8-3z" fill="#CF1A23"/>
<path transform="translate(1125,459)" d="m0 0 2 2 9 24 3 9-3-1-8-19-4-11z" fill="#E71F27"/>
<path transform="translate(836,417)" d="m0 0 3 6 2-1-1 15-2 1-1 5h-1l-1-8v-17z" fill="#E71D27"/>
<path transform="translate(838,306)" d="m0 0 3 1-10 5-10 4-16 8-5 2v-2h3v-2l5-1v-2l14-7z" fill="#F07667"/>
<path transform="translate(1014,824)" d="m0 0 2 1-1 3h-2l-2 4-8 7-8 3h-6l-1-2h5v-2l9-3 9-7z" fill="#F06D37"/>
<path transform="translate(1436,252)" d="m0 0h2l-1 5-5 11-3 10 2 1h-4l-2 3 1-7 8-21z" fill="#E92E2A"/>
<path transform="translate(1153,323)" d="m0 0h2l5 12 2 10v11l-2 1-3-19-4-11-1-3z" fill="#E92F2A"/>
<path transform="translate(763,726)" d="m0 0h17l6 1-3 3-7 1 1-3-13 1-11 2h-7l3-2z" fill="#F06D37"/>
<path transform="translate(1e3 647)" d="m0 0h4l1 5-6 4-2 4-5-7v-2h2v-2z" fill="#F48D3D"/>
<path transform="translate(1037,637)" d="m0 0 3 1-9 5-7 3-11 5h-2l-1-5 9-1 5-3z" fill="#EE5C33"/>
<path transform="translate(794,639)" d="m0 0h7l5 1-4 2-16 3h-6v-3l6-2z" fill="#050102"/>
<path transform="translate(878,660)" d="m0 0h5v2l-10 3-8 4-11 3v-3l21-8z" fill="#F18172"/>
<path transform="translate(835,328)" d="m0 0h2l1 9v19l-2 3-1-2-1-28z" fill="#E71F27"/>
<path transform="translate(1058,637)" d="m0 0h6l-3 3-18 6-4 1-2-6 4-1 3 2z" fill="#E41C26"/>
<path transform="translate(1090,424)" d="m0 0h2v20l-1 10-2 1v-30z" fill="#E71D27"/>
<path transform="translate(1282,834)" d="m0 0h4l1 24-3-1-2-14z" fill="#E71D27"/>
<path transform="translate(1018,630)" d="m0 0h13l-1 3-5 2-18 1 3-3 8-1z" fill="#F27B39"/>
<path transform="translate(1416,314)" d="m0 0h1l-1 10-4 17-3 5-1-3 4-20 1-7 2 2z" fill="#EE5732"/>
<path transform="translate(921,309)" d="m0 0h3l2 7 2-3 1 9h-2l-2 4-4-1h2l-3-15z" fill="#C92624"/>
<path transform="translate(1021,803)" d="m0 0h2l3 6 2-1 1-5 2 2-1 5-4 4 1 7-1 2h-2v-3l-3-1 1-3-1-6v-4z" fill="#DB1D25"/>
<path transform="translate(662,491)" d="m0 0h4l2 23-3-1-2-8z" fill="#E9332B"/>
<path transform="translate(1428,300)" d="m0 0h1v8l-5 21-1 2h-2l1-8 5-22z" fill="#E9342B"/>
<path transform="translate(887,290)" d="m0 0h3v2l-27 7h-7l1-2z" fill="#EB3F2D"/>
<path transform="translate(1059,793)" d="m0 0h1l2 19-2-2-4 2-2-4v-9l2-1 2 4z" fill="#C51821"/>
<path transform="translate(1121,297)" d="m0 0 5 2 13 11 8 9 3 6-1 3-6-9-9-10-7-6-2-1v-2h-3z" fill="#FBEBE3"/>
<path transform="translate(1096,858)" d="m0 0 3 1 7 8 9 7 6 3 6 2v1l-9-1-11-7-8-8-3-4z" fill="#DB1B25"/>
<path transform="translate(1423,622)" d="m0 0 1 3-2 9-3 9-4 1 1-9z" fill="#F3833B"/>
<path transform="translate(711,455)" d="m0 0 2 1v41h-1l-1-19-1-2v-12z" fill="#EF6134"/>
<path transform="translate(1422,433)" d="m0 0 3 1 2 11-1 4-1-2-1 3h-3l-1-15z" fill="#E11C26"/>
<path transform="translate(1117,289)" d="m0 0 6 1 6 3-1 3-2-1 2 5-5-2-8-5z" fill="#320B0A"/>
<path transform="translate(691,965)" d="m0 0 4 1-12 5-20 10-5 3h-2v-2l5-1v-2l22-11z" fill="#9E141B"/>
<path transform="translate(978,636)" d="m0 0 2 1-9 11-8 11-1-3 4-8 9-10z" fill="#E71D27"/>
<path transform="translate(757,404)" d="m0 0 4 4 12 25-1 4-15-30z" fill="#EA3B2D"/>
<path transform="translate(649,312)" d="m0 0 1 4h2l-1 11-3 21h-1v-8l1-9-1-9z" fill="#D3552E"/>
<path transform="translate(1252,365)" d="m0 0 2 1 1 24h2l1 3-3 4h-2l1-5-2-2-1-10z" fill="#EA3A2C"/>
<path transform="translate(1355,324)" d="m0 0 3 1 3 22v6h-2l-3-16z" fill="#E71D27"/>
<path transform="translate(954,821)" d="m0 0 6 2 14 6 1 2-12-1-8-5z" fill="#EE5832"/>
<path transform="translate(1346,732)" d="m0 0h2l3 11 4 20h-2l-4-13-3-15z" fill="#E71D27"/>
<path transform="translate(1313,663)" d="m0 0 3 1 4 11 1 1v12l-2-1-6-21z" fill="#FAC135"/>
<path transform="translate(1287,634)" d="m0 0 3 4v13l-3 12-2 1v-8l3-12v-4l-4-1z" fill="#EE5832"/>
<path transform="translate(673,341)" d="m0 0h1l-1 21-2 10h-2l1-20z" fill="#E71D27"/>
<path transform="translate(999,305)" d="m0 0h4v2l-24 7-9 2 3-3 18-6z" fill="#E71D27"/>
<path transform="translate(1433,428)" d="m0 0h2l3 16 1 14-2-1-3-15z" fill="#E71D27"/>
<path transform="translate(1e3 725)" d="m0 0 4 1 8 9-1 2-2-1v4h-2l-8-8 4 2 3-1-6-5z" fill="#E71D27"/>
<path transform="translate(1355,724)" d="m0 0h2l4 16 2 11h-3l-5-22z" fill="#E71D27"/>
<path transform="translate(1051,293)" d="m0 0 7 1 4 4-14 2h-5l1-2h4l-1-4z" fill="#050102"/>
<path transform="translate(706,803)" d="m0 0 4 1-1 22h-2l-1-7z" fill="#F5903E"/>
<path transform="translate(1482,797)" d="m0 0h1v11h-1l-1-6-3 4-5 12-2 7h-1l1-10 5-12 5-5z" fill="#D61A24"/>
<path transform="translate(961,457)" d="m0 0h3l-1 4-13 5-3-1 1-3 9-4z" fill="#050102"/>
<path transform="translate(1443,324)" d="m0 0h1l-1 19-1 17-1 5h-1v-20h-2l1-5 2-1z" fill="#E92F2A"/>
<path transform="translate(1277,288)" d="m0 0h3l-2 15-3 10h-1v-11l2-12z" fill="#E71D27"/>
<path transform="translate(1385,880)" d="m0 0h1l1 17 3 9 4 6v2l-3-1-6-12-1-5v-15z" fill="#E71D27"/>
<path transform="translate(840,800)" d="m0 0 3 1-5 5-10 4h-2l1-5z" fill="#050102"/>
<path transform="translate(1014,797)" d="m0 0 1 4-6 12h-3l-2-1 2-6 5-4z" fill="#E71D27"/>
<path transform="translate(1027,643)" d="m0 0 2 1-1 4-4 3v-2l-10 5-4-1 3-3z" fill="#050102"/>
<path transform="translate(816,417)" d="m0 0h2v11l-2 4-3 1-1-14z" fill="#E71D27"/>
<path transform="translate(1e3 642)" d="m0 0 3 1-4 1v2l-9 6-9 9-1 2-2-1 3-5 10-10z" fill="#EB3F2D"/>
<path transform="translate(1e3 623)" d="m0 0h10l-3 1v2l-12 4h-7l1-2 5-1 2-3z" fill="#EF6234"/>
<path transform="translate(791,609)" d="m0 0 3 1-1 2-21 5h-6l3-2 16-5z" fill="#050102"/>
<path transform="translate(1206,472)" d="m0 0 2 2v29l-3-1-2-10 1-4h2z" fill="#E42528"/>
<path transform="translate(670,460)" d="m0 0h2l1 4v31h-1l-2-24z" fill="#FDFDFD"/>
<path transform="translate(1120,430)" d="m0 0h2l9 25v3h-2l-6-16-3-9z" fill="#E71D27"/>
<path transform="translate(868,390)" d="m0 0h14v1l-28 5h-6l1-2z" fill="#ED4F31"/>
<path transform="translate(863,369)" d="m0 0h13l-2 5-5 1h-7z" fill="#190505"/>
<path transform="translate(1129,837)" d="m0 0 3 1 9 17 3 5v2h-2l-10-18-1-4-5 2 2-4z" fill="#CB1922"/>
<path transform="translate(858,785)" d="m0 0 2 2-21 8-5 1v-2l16-7z" fill="#E71D27"/>
<path transform="translate(1059,783)" d="m0 0h2l2 13v9l2 12-2-2-2-6-2-16z" fill="#050102"/>
<path transform="translate(1006,587)" d="m0 0 5 1 12 6 8 7 3 5-1 3-6-8-7-6-10-5-4-1z" fill="#D51A24"/>
<path transform="translate(1093,473)" d="m0 0h1l1 24-4-1-1-17 1 2h2z" fill="#E9342B"/>
<path transform="translate(1244,404)" d="m0 0 3 1 11 24-1 3-13-26z" fill="#EB402E"/>
<path transform="translate(1008,313)" d="m0 0h7v2l-17 6h-4l1-3z" fill="#E9342B"/>
<path transform="translate(800,232)" d="m0 0h2v7h2l-2 7-3 3-2 4h-1l1-9z" fill="#DC1B25"/>
<path transform="translate(729,660)" d="m0 0h2l-1 9-3 16-1 2h-2l1-10z" fill="#E71D27"/>
<path transform="translate(1030,662)" d="m0 0h5v9l-2 3-6-1-7-6v-2l-3-1 6-1 1 5 5 3 4 1v-8l-6 2z" fill="#C41821"/>
<path transform="translate(1330,322)" d="m0 0h1v8l-5 17-3 1 2-10z" fill="#E71D27"/>
<path transform="translate(1332,278)" d="m0 0h1l-1 18-1 9h-2l-2-3 1-7z" fill="#050102"/>
<path transform="translate(734,378)" d="m0 0 2 2 5 13v2h2l6 16v2h-2l-4-10-9-22z" fill="#F5ADA9"/>
<path transform="translate(851,383)" d="m0 0 5 1v2l13-3v2l-15 4h-6l1-5z" fill="#E72428"/>
<path transform="translate(875,295)" d="m0 0m-4 1h4v2l-20 6-4-1v-2z" fill="#050102"/>
<path transform="translate(977,442)" d="m0 0h5l-2 2-18 7-6 1 1-3z" fill="#E71D27"/>
<path transform="translate(761,421)" d="m0 0 3 3 4 7v3h2l6 12-1 3-7-11-7-14z" fill="#EB3F2D"/>
<path transform="translate(1341,350)" d="m0 0h1v5l7-1 6 1v2l-13 4h-2z" fill="#E71D27"/>
<path transform="translate(1336,342)" d="m0 0h1l-1 9-1 4h2v2h-2l-1 4 2 1-5 3h-2l6-22z" fill="#E71D27"/>
<path transform="translate(790,289)" d="m0 0h2l-1 11-3 13-2 1 1-12 2-12z" fill="#E92D2A"/>
<path transform="translate(1355,825)" d="m0 0 2 4-1 2-6-1-24-1v-1l10-1h19z" fill="#E82829"/>
<path transform="translate(951,826)" d="m0 0 5 2 9 6v2l-9-1-5-4z" fill="#E73D2C"/>
<path transform="translate(1329,731)" d="m0 0 2 3v3h2l3 13v10h-2l-3-16-2-8z" fill="#6E0E13"/>
<path transform="translate(1173,525)" d="m0 0 4 2 11 15 2 2-1 3-5-5-10-14z" fill="#050102"/>
<path transform="translate(1236,421)" d="m0 0 7 6 5 9v2l-3 1-9-16z" fill="#E72228"/>
<path transform="translate(824,298)" d="m0 0 3 1-10 5-2 4h-3v-2l-6-1-2-2 6-2-1 3z" fill="#EB6B63"/>
<path transform="translate(1214,842)" d="m0 0 1 3-10 19-3 4h-2l2-5 6-10 5-10z" fill="#E71D27"/>
<path transform="translate(909,797)" d="m0 0 6 1 1 14-5 10-5 4 7-14v-7l-1-6-3-1z" fill="#C81921"/>
<path transform="translate(1272,753)" d="m0 0 2 2v23l-2 1-1-8z" fill="#E71D27"/>
<path transform="translate(1162,394)" d="m0 0h2l-1 5-6 11h-3l1-4 3-7z" fill="#EA382F"/>
<path transform="translate(1371,379)" d="m0 0h3l4 19v5l-2-1-5-20z" fill="#E71D27"/>
<path transform="translate(1375,727)" d="m0 0h1v7l-4 16-3-1 4-17z" fill="#E82829"/>
<path transform="translate(844,401)" d="m0 0h3v11l-1 2-2 23h-1z" fill="#F28F86"/>
<path transform="translate(1293,830)" d="m0 0 3 1 1 9v10h-3l-1-3z" fill="#E71D27"/>
<path transform="translate(1079,660)" d="m0 0h1l-1 11-3 12h-2l2-16z" fill="#E71D27"/>
<path transform="translate(838,433)" d="m0 0h1v10l-1 2-3 20h-1v-12l1-9 2-6z" fill="#F17747"/>
<path transform="translate(819,404)" d="m0 0h2l-2 7-2 2-6-1 3-2 3-1 1-2-10 4h-2l1-3z" fill="#E9332B"/>
<path transform="translate(1145,334)" d="m0 0 2 1 4 15v10h-2l-3-15-1-4z" fill="#EC4B39"/>
<path transform="translate(1031,766)" d="m0 0 2 2 2 9v15l-2 3z" fill="#F27D3A"/>
<path transform="translate(1083,751)" d="m0 0h2l1 8-3 14h-1v-21z" fill="#E92D2A"/>
<path transform="translate(841,795)" d="m0 0 3 1-1 4-16 6h-3v-2l13-5z" fill="#E72328"/>
<path transform="translate(1062,698)" d="m0 0h2v15l-2 10h-1v-18z" fill="#E71D27"/>
<path transform="translate(853,644)" d="m0 0m-3 1h3v2l-25 10-3 3-2-3 8-4 18-7z" fill="#050102"/>
<path transform="translate(712,424)" d="m0 0h2v19l-1 4h-2v-13z" fill="#E71D27"/>
<path transform="translate(804,407)" d="m0 0h3l-1 4 10-4h2l-1 3-6 1v2l-7 1-2-1 1-5z" fill="#3B0F0C"/>
<path transform="translate(1028,824)" d="m0 0 1 3v5l10 7 4 6-1 3-7-9-9-7-1-3z" fill="#931219"/>
<path transform="translate(764,745)" d="m0 0 5 1-1 2-10 3-8-1 4-2 5-2z" fill="#C11820"/>
<path transform="translate(928,297)" d="m0 0h10l-1 3-3 1h-13l1-3z" fill="#FDFDFD"/>
<path transform="translate(940,790)" d="m0 0h2l6 13v3h-4l-4-13z" fill="#B8171F"/>
<path transform="translate(1057,695)" d="m0 0h2v17l-1 7-2-1v-12z" fill="#E71D27"/>
<path transform="translate(979,652)" d="m0 0h2l-7 14-3 7h-2l2-9 5-8z" fill="#E71D27"/>
<path transform="translate(897,654)" d="m0 0h6l-1 2-16 5-6-1 3-2z" fill="#EC4E34"/>
<path transform="translate(1335,620)" d="m0 0h2l7 24-1 4-1-6h-2l-5-18z" fill="#EF6234"/>
<path transform="translate(752,424)" d="m0 0 5 5 4 7-1 5-4-5-3-6z" fill="#E5342B"/>
<path transform="translate(1315,425)" d="m0 0 1 4-7 20-2 2 2-11 5-14z" fill="#050102"/>
<path transform="translate(1144,382)" d="m0 0h2l-2 5-11 11-7 4-2-1 14-11z" fill="#E82528"/>
<path transform="translate(987,322)" d="m0 0 4 1-11 5-12 5-4-1 8-4z" fill="#F06D37"/>
<path transform="translate(768,306)" d="m0 0h1v17l-1 12-2 2v-16l1-9z" fill="#F07458"/>
<path transform="translate(18,983)" d="m0 0 3 4 3 9 2 4-1 3-5-7-2-6z" fill="#460D0D"/>
<path transform="translate(761,855)" d="m0 0h2l5 21-1 3-3-6-3-13-3 1 2-4z" fill="#AE161D"/>
<path transform="translate(1056,779)" d="m0 0h1l2 14v9l-2 3-1-4z" fill="#FEE432"/>
<path transform="translate(1318,610)" d="m0 0 3 1 4 13 2 8h-2l-5-13-2-3z" fill="#E71D27"/>
<path transform="translate(1e3 826)" d="m0 0 2 1-7 6-7 3h-6v-2l13-5z" fill="#EA3A2C"/>
<path transform="translate(1029,811)" d="m0 0h2v5l-1 1-2 9-4 4-1-3 5-12z" fill="#EF6034"/>
<path transform="translate(1054,778)" d="m0 0h1l1 9v11h-3v-19z" fill="#D01A23"/>
<path transform="translate(986,754)" d="m0 0 6 1 6 3 3 10-5-5-8-7z" fill="#F17438"/>
<path transform="translate(692,744)" d="m0 0 2 1-1 1 2 1-2 12h-7v-3l6-2-1-3 2-3-4-1z" fill="#E02D29"/>
<path transform="translate(747,728)" d="m0 0h2v4l-13 3h-4l1-3z" fill="#E71D27"/>
<path transform="translate(848,407)" d="m0 0h1v15l-2 3h-2v-11l1-2h2z" fill="#DE1B25"/>
<path transform="translate(1210,788)" d="m0 0h6v2h-6l3 10 3 5-1 3-5-8-2-5v-6z" fill="#D01A23"/>
<path transform="translate(1052,752)" d="m0 0h1v24h-1zm-4 14h1v7h2l1 4-1 4h-2l-1-6z" fill="#A54825"/>
<path transform="translate(760,743)" d="m0 0h5l-1 3-9 2-1 1h-6v-3z" fill="#EF6635"/>
<path transform="translate(745,738)" d="m0 0 4 1 1 2-18 4v-3z" fill="#E71D27"/>
<path transform="translate(1336,667)" d="m0 0 3 1 5 22h-2l-6-21z" fill="#E71D27"/>
<path transform="translate(719,486)" d="m0 0h1l1 17-4-2-1-13h2z" fill="#EA3D2D"/>
<path transform="translate(838,457)" d="m0 0h1l1 6h1v8l-2 7-2 1v-17z" fill="#EA3A2C"/>
<path transform="translate(717,451)" d="m0 0 3 1v13l-4-1v-12z" fill="#E71D27"/>
<path transform="translate(725,306)" d="m0 0 2 4 3 2 5 1-2 4h-2l-2 4h-2l1-8h-3zm11 5 2 1z" fill="#EB4636"/>
<path transform="translate(1012,780)" d="m0 0h1v7l-5 16h-2l1-5 4-16z" fill="#E71D27"/>
<path transform="translate(1276,685)" d="m0 0 2 1-2 21-2 2v-14z" fill="#E71D27"/>
<path transform="translate(845,609)" d="m0 0h14l2 1-1 3h-12z" fill="#EB422E"/>
<path transform="translate(936,413)" d="m0 0h2l1 10v15h-3z" fill="#050102"/>
<path transform="translate(737,389)" d="m0 0 2 2 4 9v3l-3 1-5-10z" fill="#DF2928"/>
<path transform="translate(1085,331)" d="m0 0 2 2-3 16-2 5-2-1 4-21z" fill="#E71D27"/>
<path transform="translate(1640,944)" d="m0 0h8l-1 10-2 1 1-9-11 2-4 1v-2z" fill="#BC1720"/>
<path transform="translate(1289,847)" d="m0 0 3 2 1 4v10l-3-1-1-5z" fill="#E71D27"/>
<path transform="translate(1352,777)" d="m0 0 3 1 4 4v3h-3l1 8h-2z" fill="#E71F27"/>
<path transform="translate(998,636)" d="m0 0 3 1h-2v2l6-3h9l-4 2-5 2-7 2h-2l-1-3z" fill="#050102"/>
<path transform="translate(1373,418)" d="m0 0h1l3 15-2 1-3-3-1-6z" fill="#050102"/>
<path transform="translate(933,285)" d="m0 0h3l-1 4-5 1h-7v-4z" fill="#E9322B"/>
<path transform="translate(859,853)" d="m0 0 3 1-11 5 10 9h-3l-10-8v-2z" fill="#901218"/>
<path transform="translate(1313,719)" d="m0 0 1 3-8 11-6 5h-2v-9h1l1 6 5-4z" fill="#B6171F"/>
<path transform="translate(1031,650)" d="m0 0h2l1 3-8 3-5 3h-3l2-4 4-3 1 2z" fill="#050102"/>
<path transform="translate(780,631)" d="m0 0h5l-1 2-17 4h-4v-2z" fill="#E72127"/>
<path transform="translate(1196,472)" d="m0 0h1l1 12v5l-2 1-4-2v-5l3 1z" fill="#180505"/>
<path transform="translate(768,448)" d="m0 0 3 1 5 8v2h-5l-4-6z" fill="#DF2C28"/>
<path transform="translate(1211,398)" d="m0 0h1l-1 26h-1l-1 9h-1v-12z" fill="#F27939"/>
<path transform="translate(657,342)" d="m0 0h1v10l-2 14-2-1 2-22z" fill="#E71D27"/>
<path transform="translate(1080,787)" d="m0 0h1v10h-1zm-2 10 3 1v15h-2z" fill="#9D131A"/>
<path transform="translate(714,665)" d="m0 0 2 1-3 17-2 7h-1l1-12z" fill="#E71D27"/>
<path transform="translate(1165,341)" d="m0 0 2 2 2 10v11l-2-1-2-15z" fill="#E72228"/>
<path transform="translate(1034,291)" d="m0 0h3v2l-9 2h-5v2h-8l4-3z" fill="#F3863C"/>
<path transform="translate(998,814)" d="m0 0h5l-1 3-5 2h-13v-1l8-2z" fill="#EC4D30"/>
<path transform="translate(966,683)" d="m0 0 2 2 3 14v5l-3-3-2-9z" fill="#E71D27"/>
<path transform="translate(1071,651)" d="m0 0h2l-2 10-3 13h-1v-7l3-15z" fill="#E71D27"/>
<path transform="translate(804,621)" d="m0 0h7v3l-20 1 1-2z" fill="#E71D27"/>
<path transform="translate(1419,377)" d="m0 0h2v18l-3-1v-9z" fill="#E71D27"/>
<path transform="translate(734,364)" d="m0 0h2l5 14v5l-3-3-4-13z" fill="#E82929"/>
<path transform="translate(1610,971)" d="m0 0 2 2-6 11-4-2-4-5v-2l3 1 4 5z" fill="#C81921"/>
<path transform="translate(996,889)" d="m0 0h2l1 7-4 4-10 6-2-1 5-4 5-3 3-1z" fill="#C81921"/>
<path transform="translate(1369,845)" d="m0 0 2 4-1 2-1 18h-3v-12h1z" fill="#E82C2A"/>
<path transform="translate(1020,820)" d="m0 0 4 1-7 11-3 4-2-1 6-10z" fill="#F17537"/>
<path transform="translate(972,824)" d="m0 0 17 1 1 2-6 1h-8l-4-2z" fill="#EB3E2D"/>
<path transform="translate(1334,606)" d="m0 0 3 1 3 11v4h-2v-4h-2l-2-7z" fill="#A4141C"/>
<path transform="translate(1e3 426)" d="m0 0h7l-1 2-13 3h-6v-2z" fill="#E9312B"/>
<path transform="translate(725,360)" d="m0 0 5 1 4 13-1 4-6-15-2 1z" fill="#EF6C65"/>
<path transform="translate(773,948)" d="m0 0 2 3v8l-6 9-2-1 5-9v-9z" fill="#CC1922"/>
<path transform="translate(1290,817)" d="m0 0h2l1 5v19h-1l-2-17z" fill="#F5903E"/>
<path transform="translate(1363,789)" d="m0 0 3 1v12l-3 3z" fill="#E71D27"/>
<path transform="translate(1399,661)" d="m0 0 1 4-6 14h-2l3-11 3-6z" fill="#E71D27"/>
<path transform="translate(1e3 618)" d="m0 0h11l2 4h-11l-3-3z" fill="#050102"/>
<path transform="translate(697,477)" d="m0 0 4 1 2 8v4l-3-1-3-8z" fill="#E82D2A"/>
<path transform="translate(1354,361)" d="m0 0h2v2l-15 5h-3l1-3z" fill="#E71D27"/>
<path transform="translate(1196,305)" d="m0 0h2l-1 15-1-2h-2l-1 2v-7z" fill="#D32525"/>
<path transform="translate(838,306)" d="m0 0 3 1-10 5-10 3-2-2 12-4z" fill="#EC4C3C"/>
<path transform="translate(1392,446)" d="m0 0 2 1 3 14-2 1-4-11z" fill="#050102"/>
<path transform="translate(1205,310)" d="m0 0h1l-1 8-3 14h-2v-8z" fill="#ED4E30"/>
<path transform="translate(1444,225)" d="m0 0h3l-2 5-4 7-3-1 3-8z" fill="#EB3D2D"/>
<path transform="translate(1e3 876)" d="m0 0h6l2 2-10 2-2 2-2 7h-1v-7l4-5z" fill="#E71D27"/>
<path transform="translate(727,711)" d="m0 0h1l-1 13-1 6-2-1v-9l2-8z" fill="#E71D27"/>
<path transform="translate(1075,651)" d="m0 0h5v5h-3l-2 5h-2l1-9z" fill="#E71D27"/>
<path transform="translate(817,450)" d="m0 0h1v15h1l-1 11-1-4h-2z" fill="#E92D2A"/>
<path transform="translate(1228,395)" d="m0 0 1 2h2l5 13-1 4-4-7-3-9z" fill="#F17A67"/>
<path transform="translate(1156,318)" d="m0 0 3 1 6 11 1 6-3-3-7-13z" fill="#E71D27"/>
<path transform="translate(553,962)" d="m0 0 5 1 7 4 5 6v2h-2l-3-5-7-4-5-2z" fill="#9D131A"/>
<path transform="translate(981,721)" d="m0 0 3 1 5 5 5 2-3 3h-2l-8-8z" fill="#E71D27"/>
<path transform="translate(1338,700)" d="m0 0h2l4 18v2h-2l-3-12z" fill="#E71D27"/>
<path transform="translate(1045,653)" d="m0 0h2v3l-9 4-6-1 3-2z" fill="#E82528"/>
<path transform="translate(1125,459)" d="m0 0 2 2 4 11v4h-2l-5-13z" fill="#EA3C2D"/>
<path transform="translate(1159,391)" d="m0 0h2l-2 5-12 12v-3l5-6 2-1 2-4h2z" fill="#F06F55"/>
<path transform="translate(1183,354)" d="m0 0 2 2-1 11-2 6h-1v-9z" fill="#9E191C"/>
<path transform="translate(902,828)" d="m0 0 2 1-8 7-11 7-3-1h2v-2l8-4 5-4h2l1-3z" fill="#951219"/>
<path transform="translate(1140,404)" d="m0 0v3l-14 8v-4z" fill="#E9312B"/>
<path transform="translate(1096,379)" d="m0 0h2v14l-4-3 1-10z" fill="#E72228"/>
<path transform="translate(1079,338)" d="m0 0h2l-1 14-3 3 1-16z" fill="#E71D27"/>
<path transform="translate(669,326)" d="m0 0 2 2-1 12-2 2v-9h-2v-5l2 1z" fill="#EA3D2D"/>
<path transform="translate(916,332)" d="m0 0 5 2-5 5-2-2h-4v-2z" fill="#E22527"/>
<path transform="translate(687,296)" d="m0 0h1v8l-3 18h-1v-12l2-9z" fill="#F48F57"/>
<path transform="translate(1200,868)" d="m0 0v3l-7 8-6 4h-2v-2l9-7z" fill="#E11C26"/>
<path transform="translate(992,586)" d="m0 0h12l2 2h-7l4 2v2l-9-3-2-1z" fill="#99131A"/>
<path transform="translate(717,345)" d="m0 0h2v10l-1 4h-3l1-10z" fill="#EB442E"/>
<path transform="translate(776,298)" d="m0 0 2 2-1 14-1 2h-2z" fill="#E71D27"/>
<path transform="translate(880,843)" d="m0 0 2 1-12 7-5 2-3-1 15-8z" fill="#9D131B"/>
<path transform="translate(1059,793)" d="m0 0h1l2 19-5-5z" fill="#EF6134"/>
<path transform="translate(893,714)" d="m0 0 4 1-6 3-9 2v-3z" fill="#EB452F"/>
<path transform="translate(709,479)" d="m0 0h2v9l-2 2-4-2-1-4 5 1z" fill="#230707"/>
<path transform="translate(1358,830)" d="m0 0h3l1 3v10l-2-3-3-9z" fill="#E71D27"/>
<path transform="translate(960,816)" d="m0 0h6l8 8-4 1-4-5-6-3z" fill="#E72328"/>
<path transform="translate(1283,811)" d="m0 0h4v7l-4 2-1-8z" fill="#FAC636"/>
<path transform="translate(1377,787)" d="m0 0 3 1-2 13h-3z" fill="#E71D27"/>
<path transform="translate(1020,650)" d="m0 0h3l-1 4-5 3-3-2v-2z" fill="#F06C36"/>
<path transform="translate(1179,460)" d="m0 0h1l1 13-3-1-1-4v-7z" fill="#E9302A"/>
<path transform="translate(720,358)" d="m0 0h2l-2 17-2 1 1-14z" fill="#E82628"/>
<path transform="translate(1411,329)" d="m0 0 3 1-1 7-3 8-2 1 2-11z" fill="#E71D27"/>
<path transform="translate(1379,869)" d="m0 0 2 2v11l-3-1v-11z" fill="#E71D27"/>
<path transform="translate(1081,819)" d="m0 0h1v11h2v9l-4 1v-2h2l-1-7z" fill="#3F080B"/>
<path transform="translate(1370,801)" d="m0 0h2v6l-3 8-3 1 1-6h2v-7z" fill="#E71D27"/>
<path transform="translate(821,789)" d="m0 0 2 1 1 8-4 1-2-3 2-6z" fill="#E71D27"/>
<path transform="translate(1049,763)" d="m0 0h3v13l-1-3h-2l-1-9z" fill="#F3842F"/>
<path transform="translate(884,632)" d="m0 0 4 1-10 3-7 3h-3v-2z" fill="#F59E76"/>
<path transform="translate(645,419)" d="m0 0h3v6l-1 1-1 15h-1z" fill="#E71D27"/>
<path transform="translate(1432,394)" d="m0 0h2v15l-2 1-1-15z" fill="#E71D27"/>
<path transform="translate(927,322)" d="m0 0 3 1 1 4-5 2h-4v-3l4-2z" fill="#E9302A"/>
<path transform="translate(893,281)" d="m0 0h6l-4 2-1 1-15 1 3-3z" fill="#F17843"/>
<path transform="translate(754,736)" d="m0 0h5l3 3-7 1h-8l2-1v-2z" fill="#ED4F31"/>
<path transform="translate(1331,635)" d="m0 0 2 1 4 16-3-1-3-12z" fill="#E71D27"/>
<path transform="translate(642,428)" d="m0 0h1l1 15 1 7-3 1z" fill="#180305"/>
<path transform="translate(1248,420)" d="m0 0 3 3 4 7v4h-2l-5-10z" fill="#EA382C"/>
<path transform="translate(958,359)" d="m0 0h1l1 10h-4l-1-7h2z" fill="#CC1D23"/>
<path transform="translate(1214,360)" d="m0 0h3l3 10-2 3-3-7z" fill="#E92D2A"/>
<path transform="translate(826,332)" d="m0 0 3 1 1 8v9h-2l-1-13z" fill="#E71D27"/>
<path transform="translate(1370,334)" d="m0 0 2 1 2 10v6l-2-1-2-10z" fill="#E71D27"/>
<path transform="translate(1105,334)" d="m0 0h1v7l-3 8h-1l1-13z" fill="#D42826"/>
<path transform="translate(959,332)" d="m0 0h4v3l-7 3-4-1 3-3z" fill="#ED4F31"/>
<path transform="translate(731,322)" d="m0 0 2 3 1 7-1 5h-1l-1-6-2-1 1-7z" fill="#E9312B"/>
<path transform="translate(1210,317)" d="m0 0h2v12h-3v-11z" fill="#E92D2A"/>
<path transform="translate(737,960)" d="m0 0 3 1-5 3-10 5-3-1z" fill="#871117"/>
<path transform="translate(1282,766)" d="m0 0h3v12l-2 1-1-5z" fill="#E71D27"/>
<path transform="translate(1284,746)" d="m0 0 2 2v9l-1 6-2-1z" fill="#E71D27"/>
<path transform="translate(810,746)" d="m0 0 3 1-1 6-3 4-1-10z" fill="#E72328"/>
<path transform="translate(978,734)" d="m0 0 7 4 8 6-1 2-13-9z" fill="#E71D27"/>
<path transform="translate(771,726)" d="m0 0h9l6 1-3 3-7 1 1-3-6-1z" fill="#E71D27"/>
<path transform="translate(910,645)" d="m0 0 5 1-1 2-14 1v-2z" fill="#E9352B"/>
<path transform="translate(1401,643)" d="m0 0 1 2-4 9-2 7h-2l-1 2 1-5 6-14z" fill="#F3823B"/>
<path transform="translate(1306,612)" d="m0 0 3 1 2 5v9l-2-3z" fill="#050102"/>
<path transform="translate(1116,396)" d="m0 0h5l-3 3h-2v2l-2 1h-6l4-4z" fill="#350D0B"/>
<path transform="translate(862,375)" d="m0 0h9l-1 2-15 2v-2z" fill="#E82729"/>
<path transform="translate(1180,369)" d="m0 0 2 4v9l-1 5h-1l-1-12z" fill="#E22D29"/>
<path transform="translate(1205,345)" d="m0 0 2 2-2 12-2 1v-8z" fill="#EC462F"/>
<path transform="translate(793,337)" d="m0 0h1l-1 17-2-2v-10z" fill="#F27739"/>
<path transform="translate(986,839)" d="m0 0h7l-4 2 5 1v1h-11l-2-2z" fill="#E71D27"/>
<path transform="translate(1269,799)" d="m0 0h1l1 16h-3l-1-10h1z" fill="#E71D27"/>
<path transform="translate(936,630)" d="m0 0h5l2 4-11-1-2-2z" fill="#050102"/>
<path transform="translate(1133,620)" d="m0 0h11l5 1-1 2-14-1z" fill="#EE5632"/>
<path transform="translate(1432,334)" d="m0 0 2 1v8l-1 4h-3l1-7z" fill="#E71D27"/>
<path transform="translate(782,246)" d="m0 0h2l1 6-2 4h-3l1-9z" fill="#DC382A"/>
<path transform="translate(792,230)" d="m0 0 2 3-1 8-2 5h-1l1-12z" fill="#E82B29"/>
<path transform="translate(969,833)" d="m0 0 11 1 3 3h-7l-7-3z" fill="#ED543C"/>
<path transform="translate(972,819)" d="m0 0 9 2 8 1-3 2-10-1z" fill="#EF6335"/>
<path transform="translate(1063,797)" d="m0 0h2l1 3v13l-2-4z" fill="#FFEE31"/>
<path transform="translate(1274,792)" d="m0 0h1l1 17-2-3v-5h-2l1-8z" fill="#ED5031"/>
<path transform="translate(1345,762)" d="m0 0 2 1 2 8v7l-2-2-2-7z" fill="#E71D27"/>
<path transform="translate(1020,663)" d="m0 0 3 1 1 4 7 4v2l-5-2-6-5v-2l-3-1z" fill="#DF1C25"/>
<path transform="translate(1033,653)" d="m0 0h2v2l-10 4h-3l1-3z" fill="#EC4D30"/>
<path transform="translate(1086,457)" d="m0 0h2v11h-1v-5h-2l-1 4v-9z" fill="#EB3E2D"/>
<path transform="translate(739,368)" d="m0 0h2l5 12-1 3-5-10z" fill="#E71D27"/>
<path transform="translate(665,330)" d="m0 0 1 3h2l1 11-2 1v-5h-2z" fill="#BD2A23"/>
<path transform="translate(1218,322)" d="m0 0h2v7l2 1-1 3-2 2v-4h-2v-7z" fill="#E72027"/>
<path transform="translate(1256,300)" d="m0 0h1v14l-2 5h-1l1-13z" fill="#F6AE8B"/>
<path transform="translate(864,295)" d="m0 0 7 1-4 2-4 1h-7l1-2z" fill="#EB452F"/>
<path transform="translate(1428,235)" d="m0 0h4l-2 4-3 5-2-1 1-5z" fill="#EB3E2D"/>
<path transform="translate(778,233)" d="m0 0h3v11l-2 1-2-7z" fill="#E72428"/>
<path transform="translate(806,221)" d="m0 0 2 1-2 9-4-3 1-5z" fill="#EA3A2C"/>
<path transform="translate(783,212)" d="m0 0 3 1-4 9h-2l1-7z" fill="#E92F2A"/>
<path transform="translate(559,1009)" d="m0 0 2 2-1 6 6 3v1l-7-1-2-3 1-6z" fill="#DF1C25"/>
<path transform="translate(768,878)" d="m0 0 2 3 6 10v2l-3-1-6-11z" fill="#C81922"/>
<path transform="translate(1385,768)" d="m0 0h2v9l-1 5-3-1 1-7z" fill="#E71D27"/>
<path transform="translate(1358,772)" d="m0 0 3 1 1 4v9h-2l-1-9z" fill="#E71D27"/>
<path transform="translate(1010,646)" d="m0 0h9v2l-6 3h-2z" fill="#F3803A"/>
<path transform="translate(724,640)" d="m0 0h2l-1 4-2 2-1 5h-2l1-9z" fill="#E71D27"/>
<path transform="translate(999,620)" d="m0 0 13 2v1l-13 2-4 1v-2l3-1z" fill="#E71D27"/>
<path transform="translate(1280,449)" d="m0 0 5 1 3 9-6-5z" fill="#050102"/>
<path transform="translate(1222,364)" d="m0 0 2 1 3 10v3h-2l-3-9z" fill="#EA3B2D"/>
<path transform="translate(723,317)" d="m0 0h2v11l-2 2-1-2v-10z" fill="#EB432E"/>
<path transform="translate(963,305)" d="m0 0 3 1-17 8h-3l1-2z" fill="#050102"/>
<path transform="translate(1075,850)" d="m0 0 1 3h2l1 8h-3l-1-3z" fill="#A0141B"/>
<path transform="translate(1036,782)" d="m0 0h1v12l-1 6-1-4-2-1z" fill="#99131A"/>
<path transform="translate(1355,752)" d="m0 0 2 2 2 7v6l-2-1-2-9z" fill="#E71D27"/>
<path transform="translate(1320,736)" d="m0 0 3 4v5l-3-3-3 6-2-1z" fill="#790F15"/>
<path transform="translate(761,421)" d="m0 0 3 3 5 10-1 2-6-9z" fill="#EF6B59"/>
<path transform="translate(660,404)" d="m0 0h2v8l-1 6-2-1z" fill="#E82829"/>
<path transform="translate(1196,346)" d="m0 0 2 3-1 10-2 3v-11z" fill="#EB442E"/>
<path transform="translate(708,349)" d="m0 0h2v9l-1 4h-2z" fill="#EA382C"/>
<path transform="translate(1141,339)" d="m0 0 3 1 1 3v13h-1z" fill="#F38753"/>
<path transform="translate(835,328)" d="m0 0h2v21h-1l-1-16-1-4z" fill="#F27839"/>
<path transform="translate(1153,323)" d="m0 0h2l3 6v5h-2l-4-10z" fill="#EA382C"/>
<path transform="translate(714,307)" d="m0 0h1v6l-6 2 1-4z" fill="#ED5744"/>
<path transform="translate(1290,803)" d="m0 0h2v12l-2 1-1-8z" fill="#F8B438"/>
<path transform="translate(846,613)" d="m0 0 4 2 1 3h-7l-1-4z" fill="#F4A190"/>
<path transform="translate(657,487)" d="m0 0h2l1 10-3-1-1-2v-6z" fill="#E9312B"/>
<path transform="translate(1498,476)" d="m0 0h6l2 1v3l-3 1-6-3z" fill="#050102"/>
<path transform="translate(1080,438)" d="m0 0 2 4-1 1-1 18h-1v-22z" fill="#E71D27"/>
<path transform="translate(1319,410)" d="m0 0 2 1v6l-2 3h-2l1-8z" fill="#050102"/>
<path transform="translate(790,289)" d="m0 0h2l-1 11-2 1v-11z" fill="#F17A5D"/>
<path transform="translate(1445,265)" d="m0 0 1 3-3 11-1 2h-2l1-5z" fill="#F6B1A5"/>
<path transform="translate(1590,961)" d="m0 0 3 4 5 7-1 3-7-10z" fill="#8A1117"/>
<path transform="translate(1280,748)" d="m0 0h2l-1 13h-2v-12z" fill="#E71D27"/>
<path transform="translate(723,712)" d="m0 0h2l-3 12h-2l1-9z" fill="#E71D27"/>
<path transform="translate(1414,411)" d="m0 0h2l1 11h-3z" fill="#E71D27"/>
<path transform="translate(1110,409)" d="m0 0h7l-1 2-12 2v-3z" fill="#E82528"/>
<path transform="translate(1136,400)" d="m0 0 3 1-5 3-6 3h-2v-2z" fill="#EF6448"/>
<path transform="translate(1140,379)" d="m0 0 1 3-7 8h-2l2-4z" fill="#E72127"/>
<path transform="translate(804,307)" d="m0 0 2 1-5 5-4 3 1-7z" fill="#FDFDFD"/>
<path transform="translate(924,307)" d="m0 0 3 3v6l-2 2-1-9-3-1z" fill="#FDFDFD"/>
<path transform="translate(1210,305)" d="m0 0 3 1-1 2h-4l-2 4v-2h-2l1-4z" fill="#EA362C"/>
<path transform="translate(895,294)" d="m0 0h6l3 3-11 1z" fill="#F1816D"/>
<path transform="translate(1644,983)" d="m0 0h2l5 8 3 2v2l-4-2-5-6z" fill="#C41821"/>
<path transform="translate(1386,902)" d="m0 0h2l6 10v2l-3-1-5-9z" fill="#B2161E"/>
<path transform="translate(1088,846)" d="m0 0 3 1 5 8-1 3-7-10z" fill="#AA151D"/>
<path transform="translate(1276,831)" d="m0 0h3v9l-3-1z" fill="#D51A24"/>
<path transform="translate(706,803)" d="m0 0h3l-1 12h-2z" fill="#F9BB38"/>
<path transform="translate(1269,782)" d="m0 0 2 1v10l-3 3v-13z" fill="#E71D27"/>
<path transform="translate(695,760)" d="m0 0h2l-1 10-2-2-2-6z" fill="#050102"/>
<path transform="translate(718,714)" d="m0 0 2 1-1 11h-3z" fill="#E71D27"/>
<path transform="translate(1037,637)" d="m0 0 3 1-7 4h-6l4-3z" fill="#F06C36"/>
<path transform="translate(1316,586)" d="m0 0 3 1 1 3v7l-1-2h-2z" fill="#F06C36"/>
<path transform="translate(1084,489)" d="m0 0h2l2 12h-2l-2-3z" fill="#B42321"/>
<path transform="translate(767,424)" d="m0 0h2l4 9-1 4-5-10z" fill="#EC492F"/>
<path transform="translate(646,328)" d="m0 0h2l1 5-1 7h-2z" fill="#871518"/>
</svg>
